<svg xmlns="http://www.w3.org/2000/svg" xmlns:xlink="http://www.w3.org/1999/xlink" xmlns:lucid="lucid" width="1760" height="1360"><g transform="translate(0 0)" lucid:page-tab-id="0_0"><path d="M220 298.3h1200V1320H220z" stroke="#232f3e" stroke-width="2" fill="#fff"/><path d="M220 298.3h56v56h-56v-56z" stroke="#fff" stroke-opacity="0" fill="#232f3e"/><path d="M238.22 324.16c-.04.47.05.87.17 1.33.1.37.28.7.48 1.06.04.1.08.2.08.34 0 .2-.12.35-.28.45l-.95.62c-.12.08-.25.12-.37.12-.16 0-.33-.08-.45-.22-.2-.2-.36-.42-.52-.7-.17-.24-.3-.52-.46-.86-1.1 1.38-2.62 2.1-4.4 2.07-1.14.04-2.12-.32-2.95-1.1-.78-.78-1.15-1.75-1.1-2.85-.05-1.22.4-2.28 1.35-3.08 1.07-.84 2.3-1.22 3.66-1.15.57 0 1.02.03 1.6.1.57.1 1.1.2 1.72.34v-1.1c.08-.88-.16-1.67-.7-2.37-.74-.58-1.56-.8-2.46-.7-.53 0-1.03.05-1.6.18-.58.14-1.03.3-1.6.52l-.5.2h-.24c-.2 0-.33-.17-.33-.47v-.74c0-.2.04-.35.12-.52.12-.15.24-.25.4-.32.66-.3 1.2-.5 1.9-.68.77-.2 1.47-.3 2.3-.28 1.47-.12 2.78.27 3.9 1.2.94 1.05 1.35 2.3 1.22 3.68zm-6.07 2.27c.57 0 1.06-.08 1.6-.28.57-.2 1.02-.5 1.44-.95.23-.28.4-.58.48-.94.12-.45.16-.85.16-1.3v-.67c-.53-.1-.94-.18-1.43-.22H233c-.8-.07-1.55.12-2.2.6-.54.44-.8 1.03-.75 1.72-.04.6.13 1.15.54 1.6.44.36.97.5 1.55.43zm12 1.6c-.22.02-.42-.02-.6-.15-.15-.17-.23-.35-.32-.6l-3.5-11.5-.1-.62c0-.24.1-.36.36-.36h1.47c.2-.02.37.02.57.14.17.18.25.36.3.6l2.5 9.95 2.38-9.94c0-.24.08-.44.28-.6.17-.12.37-.16.58-.15h1.2c.24 0 .4.04.6.15.17.18.25.37.3.6l2.33 9.94 2.56-10c.04-.23.16-.42.33-.6.15-.1.36-.16.56-.13h1.4c.16-.02.33.1.37.3v.3s0 .2-.12.37l-3.6 11.52c-.05.23-.13.42-.3.6-.2.1-.36.15-.57.13h-1.27c-.25.02-.45-.03-.62-.16-.16-.17-.25-.37-.3-.6l-2.3-9.6-2.3 9.6c-.03.23-.1.43-.27.6-.2.13-.4.18-.62.15zm19.2.4c-.82 0-1.5-.08-2.3-.27-.65-.12-1.14-.3-1.72-.6-.2-.1-.37-.23-.45-.4-.08-.15-.12-.3-.12-.45v-.73c0-.3.12-.46.32-.46h.3l.36.16c.58.24 1.03.4 1.6.5.62.15 1.15.2 1.8.2.8.06 1.5-.1 2.2-.5.48-.3.77-.8.72-1.4.05-.4-.12-.75-.36-1.03-.46-.4-.95-.65-1.52-.8l-2.18-.68c-.94-.25-1.73-.73-2.38-1.5-.5-.65-.74-1.35-.74-2.18 0-.6.12-1.08.4-1.6.3-.5.63-.9 1.08-1.23.5-.38.98-.6 1.6-.77.66-.18 1.2-.27 1.9-.25.32-.03.6-.03.97 0l1 .15.8.24.67.26c.16.12.28.23.45.38.08.16.12.3.12.5v.7c0 .32-.12.48-.37.48-.2-.03-.37-.1-.57-.2-.95-.4-1.8-.6-2.88-.56-.7-.05-1.3.08-1.97.4-.5.3-.74.8-.7 1.35 0 .42.13.77.46 1.07.5.4.98.64 1.6.8l2.1.7c.94.23 1.67.7 2.3 1.42.48.62.7 1.3.7 2.08 0 .64-.13 1.17-.38 1.73-.3.56-.62.97-1.1 1.33-.5.4-1 .67-1.6.85-.75.24-1.4.34-2.15.35zM266.1 335.77c-5.6 3.8-11.36 5.57-18.15 5.56-8.54.04-15.82-2.74-22.16-8.45-.5-.42 0-1 .48-.68 7.07 4.06 14.03 5.9 22.2 5.9 6.1-.04 11.3-1.1 16.93-3.46.83-.35 1.52.54.7 1.13z" stroke="#fff" stroke-opacity="0" fill="#fff"/><path d="M268.16 333.48c-.64-.8-4.16-.38-5.75-.2-.46 0-.53-.35-.1-.66 2.8-1.97 7.42-1.4 8-.74.6.67-.14 5.3-2.78 7.5-.4.33-.78.14-.6-.3.54-1.5 1.86-4.83 1.24-5.6z" stroke="#fff" stroke-opacity="0" fill="#fff"/><use xlink:href="#a" transform="matrix(1,0,0,1,291,318.28549522418325) translate(0 12.444444444444446)"/><use xlink:href="#b" transform="matrix(1,0,0,1,291,318.28549522418325) translate(39.66666666666667 12.444444444444446)"/><path d="M240 495.16h1141.75V1260H240z" stroke="#248814" stroke-width="2" fill="#f6f6f7"/><path d="M240 495.16h56v56h-56v-56z" stroke="#fff" stroke-opacity="0" fill="#248814"/><path d="M271.76 523.47h-1.18v-1.1c-.12-1.74-1.48-3.08-3.2-3.2-1.9-.13-3.54 1.3-3.67 3.2v1.06h-1.17c-.44 0-.8.36-.8.8v6.13c0 .44.36.8.8.8h9.23c.44 0 .8-.36.8-.8v-6.1c0-.43-.36-.8-.8-.8zm-6.4-1.07c.1-1.02 1-1.77 2-1.67.9.08 1.58.77 1.67 1.67v1.07h-3.72zm5.65 7.08h-7.67v-4.42h7.63z" stroke="#fff" stroke-opacity="0" fill="#fff"/><path d="M282.27 520.9c-.08-2.44-1.58-4.47-3.87-5.3-1.58-.46-3.16-.13-4.4.9-.68-1.44-1.47-2.6-2.6-3.75-3.24-3.35-7.94-4.28-12.18-2.4-4.04 1.9-6.4 5.64-6.54 10.06v.73c-3.4.96-5.66 4.06-5.5 7.63v.63c.4 4.27 3.92 7.5 8.2 7.46h26s7.42-.63 7.42-8.1c.04-3.9-2.66-7.2-6.53-7.85zm-.96 14.4h-25.9c-3.47.05-6.3-2.53-6.6-5.96v-.53c-.15-3.03 1.93-5.7 4.92-6.3.38-.1.63-.47.6-.88-.06-.4-.06-.74 0-1.15.07-3.8 2.1-6.95 5.52-8.6 1.25-.57 2.4-.82 3.83-.85 2.62.08 4.87 1.05 6.7 2.94 1.25 1.3 2.04 2.6 2.62 4.3.03.15.1.3.24.37.37.27.87.2 1.12-.17.83-1.18 2.25-1.67 3.62-1.3 1.8.73 2.87 2.4 2.83 4.32-.07.4.22.83.64.9 3.57.37 6.2 3.55 5.82 7.12-.3 3.13-2.7 5.52-5.82 5.85z" stroke="#fff" stroke-opacity="0" fill="#fff"/><use xlink:href="#c" transform="matrix(1,0,0,1,311,515.1616871208398) translate(0 13.511111111111113)"/><use xlink:href="#d" transform="matrix(1,0,0,1,311,515.1616871208398) translate(0 32.711111111111116)"/><path d="M967.44 447.1h389.1V1220h-389.1z" fill="#fff" fill-opacity="0"/><path d="M979.6 447.1h8.1m8.1 0h8.12m8.1 0h8.1m8.12 0h8.1m8.1 0h8.1m8.12 0h8.1m8.1 0h8.12m8.1 0h8.1m8.12 0h8.1m8.1 0h8.12m8.1 0h8.1m8.12 0h8.1m8.1 0h8.1m8.12 0h8.1m8.1 0h8.12m8.1 0h8.1m8.12 0h8.1m8.1 0h8.12m8.1 0h8.1m8.12 0h8.1m8.1 0h8.1m8.12 0h8.1m8.1 0h8.12m8.1 0h4.06v4.03m0 8.05v8.05m0 8.05v8.05m0 8.05v8.05m0 8.05v8.05m0 8.06v8.04m0 8.05v8.04m0 8.05v8.04m0 8.05v8.04m0 8.05v8.04m0 8.06v8.05m0 8.05v8.05m0 8.05v8.05m0 8.05v8.05m0 8.05v8.05m0 8.06v8.06m0 8.05v8.06m0 8.05v8.06m0 8.05v8.06m0 8.05v8.07m0 8.05v8.05m0 8.05v8.05m0 8.05v8.05m0 8.05v8.05m0 8.05v8.06m0 8.05v8.05m0 8.05v8.05m0 8.05v8.05m0 8.05v8.05m0 8.06v8.05m0 8.04v8.05m0 8.04v8.05m0 8.04v8.05m0 8.04v8.05m0 8.05v8.05m0 8.05v8.05m0 8.05v8.05m0 8.05v8.05m0 8.05v8.05m0 8.06v8.05m0 8.06v8.05m0 8.06v8.05m0 8.06v8.05m0 8.06v8.06m0 8.05v8.05m0 8.05v8.05m0 8.05v8.05m0 8.05v8.05m0 8.05v4.03h-4.05m-8.12 0h-8.1m-8.1 0h-8.12m-8.1 0h-8.1m-8.12 0h-8.1m-8.1 0h-8.12m-8.1 0h-8.1m-8.12 0h-8.1m-8.1 0h-8.1m-8.12 0h-8.1m-8.1 0h-8.12m-8.1 0h-8.1m-8.12 0h-8.1m-8.1 0h-8.12m-8.1 0h-8.1m-8.12 0h-8.1m-8.1 0h-8.1m-8.12 0h-8.1m-8.1 0h-8.12m-8.1 0h-8.1m-8.12 0h-8.1m-8.1 0H1012m-8.1 0h-8.1m-8.12 0h-8.1m-8.1 0h-4.06v-4.03m0-8.05v-8.05m0-8.05v-8.05m0-8.05v-8.05m0-8.05v-8.05m0-8.05v-8.06m0-8.05v-8.04m0-8.05v-8.04m0-8.05v-8.04m0-8.05v-8.04m0-8.06v-8.05m0-8.05v-8.05m0-8.05v-8.05m0-8.05v-8.05m0-8.05v-8.05m0-8.06v-8.06m0-8.05v-8.06m0-8.05v-8.06m0-8.05v-8.06m0-8.05v-8.06m0-8.06v-8.05m0-8.05v-8.05m0-8.05v-8.05m0-8.05v-8.05m0-8.05v-8.06m0-8.05v-8.05m0-8.05v-8.05m0-8.05v-8.05m0-8.05v-8.05m0-8.05V749m0-8.04v-8.05m0-8.04v-8.05m0-8.04v-8.05m0-8.04v-8.05m0-8.05v-8.05m0-8.05v-8.05m0-8.05v-8.05m0-8.05v-8.05m0-8.05v-8.05m0-8.06V588m0-8.06v-8.05m0-8.06v-8.05m0-8.06v-8.05m0-8.06v-8.05m0-8.07v-8.05m0-8.05v-8.05m0-8.05v-8.05m0-8.05v-8.05m0-8.05v-4.03h4.05" stroke="#147eba" stroke-width="2" fill="none"/><use xlink:href="#e" transform="matrix(1,0,0,1,967.4384023782297,467.100368124839) translate(98.46913580246913 12.444444444444446)"/><use xlink:href="#f" transform="matrix(1,0,0,1,967.4384023782297,467.100368124839) translate(139.820987654321 12.444444444444446)"/><use xlink:href="#g" transform="matrix(1,0,0,1,967.4384023782297,467.100368124839) translate(162.2469135802469 12.444444444444446)"/><use xlink:href="#h" transform="matrix(1,0,0,1,967.4384023782297,467.100368124839) translate(280.3395061728395 12.444444444444446)"/><path d="M422.55 600.22h345.4V840h-345.4z" fill="#248814" fill-opacity=".13"/><path d="M422.55 600.22h56v56h-56v-56z" stroke="#fff" stroke-opacity="0" fill="#248814"/><path d="M465.93 622.4c-.15-.17-.34-.25-.56-.25h-5.15v-5.57c-.03-2.54-.97-4.7-2.84-6.4-1.9-1.84-4.15-2.76-6.77-2.76-2.64 0-4.9.84-6.8 2.62-1.9 1.7-2.86 3.87-2.9 6.4v5.67h-5.14c-.25 0-.44.1-.6.26-.15.16-.2.33-.2.58v25.3c0 .4.33.78.8.78h29.58c.47 0 .8-.37.8-.8v-25.28c0-.2-.05-.37-.2-.54zm-23.46-5.9c.03-2.13.8-3.88 2.37-5.3 1.62-1.5 3.53-2.2 5.74-2.2 2.22 0 4.12.75 5.7 2.25 1.54 1.4 2.32 3.2 2.32 5.33v5.57h-16.16zm22.1 30.94h-28.03v-23.7h28.02z" stroke="#fff" stroke-opacity="0" fill="#fff"/><path d="M449.75 637.53v6.25h1.6v-6.23c2.13-.4 3.62-2.2 3.63-4.36 0-2.44-1.98-4.42-4.4-4.43-2.2-.03-4.07 1.5-4.44 3.67-.4 2.4 1.2 4.7 3.6 5.1zm.82-7.16c.78 0 1.44.27 2 .83.54.55.82 1.2.8 2 .03 1.54-1.2 2.8-2.74 2.82h-.06c-1.56.12-2.92-1.05-3.04-2.62-.12-1.56 1.05-2.92 2.6-3.03h.44z" stroke="#fff" stroke-opacity="0" fill="#fff"/><path d="M400 447.1h389.1V1220H400z" fill="#fff" fill-opacity="0"/><path d="M412.16 447.1h8.1m8.1 0h8.12m8.1 0h8.1m8.12 0h8.1m8.1 0h8.12m8.1 0h8.1m8.1 0h8.12m8.1 0h8.1m8.12 0h8.1m8.1 0h8.12m8.1 0h8.1m8.12 0h8.1m8.1 0h8.12m8.1 0h8.1m8.1 0h8.12m8.1 0h8.1m8.12 0h8.1m8.1 0h8.12m8.1 0h8.1m8.12 0h8.1m8.1 0h8.12m8.1 0h8.1m8.1 0h8.12m8.1 0h4.06v4.03m0 8.05v8.05m0 8.05v8.05m0 8.05v8.05m0 8.05v8.05m0 8.06v8.04m0 8.05v8.04m0 8.05v8.04m0 8.05v8.04m0 8.05v8.04m0 8.06v8.05m0 8.05v8.05m0 8.05v8.05m0 8.05v8.05m0 8.05v8.05m0 8.06v8.06m0 8.05v8.06m0 8.05v8.06m0 8.05v8.06m0 8.05v8.07m0 8.05v8.05m0 8.05v8.05m0 8.05v8.05m0 8.05v8.05m0 8.05v8.06m0 8.05v8.05m0 8.05v8.05m0 8.05v8.05m0 8.05v8.05m0 8.06v8.05m0 8.04v8.05m0 8.04v8.05m0 8.04v8.05m0 8.04v8.05m0 8.05v8.05m0 8.05v8.05m0 8.05v8.05m0 8.05v8.05m0 8.05v8.05m0 8.06v8.05m0 8.06v8.05m0 8.06v8.05m0 8.06v8.05m0 8.06v8.06m0 8.05v8.05m0 8.05v8.05m0 8.05v8.05m0 8.05v8.05m0 8.05v4.03h-4.05m-8.1 0h-8.12m-8.1 0h-8.1m-8.1 0h-8.12m-8.1 0h-8.1m-8.1 0h-8.12m-8.1 0h-8.1m-8.1 0h-8.12m-8.1 0h-8.1m-8.12 0h-8.1m-8.1 0h-8.12m-8.1 0h-8.1m-8.12 0h-8.1m-8.1 0h-8.12m-8.1 0h-8.1m-8.1 0h-8.12m-8.1 0h-8.1m-8.12 0h-8.1m-8.1 0h-8.12m-8.1 0h-8.1m-8.12 0h-8.1m-8.1 0h-8.12m-8.1 0h-8.1m-8.1 0h-8.12m-8.1 0H400v-4.03m0-8.05v-8.05m0-8.05v-8.05m0-8.05v-8.05m0-8.05v-8.05m0-8.05v-8.06m0-8.05v-8.04m0-8.05v-8.04m0-8.05v-8.04m0-8.05v-8.04m0-8.06v-8.05m0-8.05v-8.05m0-8.05v-8.05m0-8.05v-8.05m0-8.05v-8.05m0-8.06v-8.06m0-8.05v-8.06m0-8.05v-8.06m0-8.05v-8.06m0-8.05v-8.06m0-8.06v-8.05m0-8.05v-8.05m0-8.05v-8.05m0-8.05v-8.05m0-8.05v-8.06m0-8.05v-8.05m0-8.05v-8.05m0-8.05v-8.05m0-8.05v-8.05m0-8.05V749m0-8.04v-8.05m0-8.04v-8.05m0-8.04v-8.05m0-8.04v-8.05m0-8.05v-8.05m0-8.05v-8.05m0-8.05v-8.05m0-8.05v-8.05m0-8.05v-8.05m0-8.06V588m0-8.06v-8.05m0-8.06v-8.05m0-8.06v-8.05m0-8.06v-8.05m0-8.07v-8.05m0-8.05v-8.05m0-8.05v-8.05m0-8.05v-8.05m0-8.05v-4.03h4.05" stroke="#147eba" stroke-width="2" fill="none"/><use xlink:href="#e" transform="matrix(1,0,0,1,400,467.100368124839) translate(98.46913580246913 12.444444444444446)"/><use xlink:href="#f" transform="matrix(1,0,0,1,400,467.100368124839) translate(139.820987654321 12.444444444444446)"/><use xlink:href="#g" transform="matrix(1,0,0,1,400,467.100368124839) translate(162.2469135802469 12.444444444444446)"/><use xlink:href="#i" transform="matrix(1,0,0,1,400,467.100368124839) translate(280.3395061728395 12.444444444444446)"/><path d="M988.23 600h347.04v240H988.23z" fill="#248814" fill-opacity=".13"/><path d="M988.23 600h56v56h-56v-56z" stroke="#fff" stroke-opacity="0" fill="#248814"/><path d="M1031.6 622.18c-.15-.17-.33-.25-.55-.25h-5.15v-5.58c-.03-2.54-.97-4.7-2.84-6.4-1.9-1.84-4.15-2.75-6.77-2.75-2.66 0-4.9.83-6.8 2.62-1.92 1.7-2.88 3.87-2.9 6.4v5.66h-5.16c-.25 0-.44.1-.6.25-.15.17-.2.34-.2.6V648c0 .43.33.8.8.8h29.58c.46 0 .8-.37.8-.8v-25.28c0-.2-.06-.38-.2-.54zm-23.45-5.9c.03-2.13.8-3.88 2.37-5.3 1.62-1.5 3.52-2.2 5.74-2.2 2.2 0 4.12.75 5.7 2.25 1.54 1.4 2.32 3.2 2.32 5.32v5.58h-16.17zm22.1 30.94h-28.03v-23.7h28.02z" stroke="#fff" stroke-opacity="0" fill="#fff"/><path d="M1015.42 637.3v6.25h1.6v-6.23c2.13-.4 3.63-2.2 3.64-4.35 0-2.43-1.98-4.4-4.42-4.43-2.2-.03-4.05 1.5-4.42 3.68-.4 2.4 1.2 4.68 3.6 5.1zm.82-7.15c.8 0 1.45.27 2 .82.55.56.83 1.22.82 2 0 1.55-1.2 2.8-2.75 2.82h-.06c-1.56.1-2.92-1.06-3.03-2.62-.1-1.56 1.06-2.93 2.62-3.03.15-.02.27-.02.42 0z" stroke="#fff" stroke-opacity="0" fill="#fff"/><path d="M837.77 569.13H606.55c-6.63 0-12 5.37-12 12v438.37" stroke="#333" fill="none"/><path d="M838.27 569.13l.02.5h-.54v-1h.54zM595.05 1020h-1v-.5h1z" fill="#333"/><path d="M717 224.1h-16.8c-.77 0-1.38-.62-1.38-1.37v-2.06c0-7.7 5.05-14.14 12.55-15.95.35-.08.67-.04 1 .14 2.2 1.18 4.6 1.18 6.8 0 .3-.18.63-.22.98-.14 1.97.5 3.6 1.2 5.27 2.3l-1.55 2.3c-1.25-.8-2.42-1.36-3.88-1.74-2.8 1.28-5.68 1.28-8.47 0-5.98 1.67-9.95 6.9-9.95 13.1v.67H717z" stroke="#fff" stroke-opacity="0" fill="#333"/><path d="M715.74 208.44c-5 0-9.05-4.05-9.05-9.04 0-4.98 4.04-9.03 9.04-9.03 5-.06 9.07 3.96 9.13 8.93.03 3.45-1.7 6.4-4.75 8.02-1.4.78-2.76 1.12-4.38 1.12zm0-15.33c-3.5 0-6.35 2.82-6.36 6.3 0 2.37 1.2 4.4 3.3 5.52 1.97 1.06 4.15 1.06 6.13 0 2.12-1.14 3.34-3.2 3.3-5.6-.03-3.46-2.9-6.22-6.36-6.2zM762.3 224.1h-16.8v-2.75h15.42v-.68c0-6.2-3.97-11.43-9.94-13.1-2.8 1.3-5.68 1.3-8.48 0-1.46.4-2.66.97-3.92 1.84l-1.57-2.26c1.7-1.17 3.32-1.9 5.3-2.4.34-.1.68-.05 1 .13 2.2 1.18 4.6 1.18 6.83 0 .32-.18.64-.22.98-.14 7.5 1.8 12.57 8.25 12.57 15.94v2.06c0 .75-.62 1.36-1.36 1.37z" stroke="#fff" stroke-opacity="0" fill="#333"/><path d="M746.7 208.44c-5.03 0-9.1-4.1-9.1-9.12 0-5.03 4.1-9.1 9.15-9.1 5.03 0 9.1 4.1 9.1 9.13 0 3.43-1.73 6.34-4.74 7.98-1.4.77-2.78 1.1-4.4 1.1zm0-15.3c-3.47-.03-6.32 2.77-6.34 6.27-.02 2.38 1.2 4.4 3.3 5.5 1.96 1.08 4.15 1.08 6.13 0 2.13-1.12 3.35-3.2 3.32-5.62-.08-3.46-2.94-6.23-6.4-6.15zM753.28 255.1h-44.13c-.75 0-1.36-.62-1.36-1.38v-2.93c-.06-10.62 6.97-19.54 17.28-22.04.37-.1.7-.06 1.03.1 3.3 1.77 6.9 1.77 10.22 0 .28-.16.6-.2.98-.1 10.36 2.48 17.4 11.4 17.34 22.03v2.92c0 .76-.6 1.37-1.36 1.37zm-42.73-2.76h41.33v-1.55c0-9.14-5.9-16.82-14.76-19.2-3.9 1.88-7.97 1.88-11.86 0-8.85 2.38-14.7 10.06-14.7 19.2z" stroke="#fff" stroke-opacity="0" fill="#333"/><path d="M731.26 232.9c-2.2 0-4.05-.46-6-1.5-6-3.3-8.22-10.82-4.93-16.84 3.3-6 10.83-8.2 16.87-4.94 6 3.3 8.23 10.82 4.94 16.84-1.2 2.18-2.75 3.75-4.94 4.94-1.9 1.04-3.78 1.5-5.94 1.5zm0-21.7c-3.6-.04-6.7 1.77-8.45 4.95-2.47 4.58-.78 10.34 3.8 12.84 3 1.58 6.28 1.58 9.26 0 3.2-1.75 5.04-4.85 5-8.47-.08-5.2-4.38-9.4-9.6-9.32z" stroke="#fff" stroke-opacity="0" fill="#333"/><path d="M762.68 224.1h-32.2c-.55 0-1-.44-1-1v-2.13c-.03-7.74 5.1-14.25 12.62-16.08.27-.08.5-.04.75.07 2.4 1.3 5.03 1.3 7.45 0 .2-.1.45-.15.72-.08 7.55 1.8 12.68 8.3 12.65 16.07v2.13c0 .56-.45 1-1 1zm-31.18-2h30.15v-1.13c0-6.66-4.3-12.26-10.77-14-2.83 1.37-5.8 1.37-8.64 0-6.46 1.74-10.74 7.34-10.74 14z" stroke="#fff" stroke-opacity="0" stroke-width=".73" fill="#fff" fill-opacity="0"/><path d="M732 224.1h-32.2c-.54 0-.98-.44-.98-1v-2.13c-.04-7.74 5.1-14.25 12.6-16.08.28-.08.52-.04.76.07 2.4 1.3 5.03 1.3 7.45 0 .2-.1.45-.15.72-.08 7.55 1.8 12.68 8.3 12.65 16.07v2.13c0 .56-.45 1-1 1zm-31.17-2h30.15v-1.13c0-6.66-4.3-12.26-10.77-14-2.82 1.37-5.8 1.37-8.63 0-6.46 1.74-10.74 7.34-10.74 14z" stroke="#fff" stroke-opacity="0" stroke-width=".73" fill="#fff" fill-opacity="0"/><path d="M844.94 264.7h65.8v64.86h-65.8V264.7z" stroke="#fff" stroke-opacity="0" fill="#693cc5"/><path d="M868.88 301.84c1.17.4 2.2.6 3.44.63.78.07 1.47-.12 2.12-.58.5-.47.75-1.05.72-1.74.06-.7-.16-1.33-.68-1.84-.7-.45-1.42-.63-2.25-.57-1 .02-1.83.07-2.8.18v-1.22l.34-5.33h6.6v1.43h-5.1l-.25 3.63c.6-.12 1.13-.17 1.76-.17 1.16-.07 2.17.27 3.05 1 .8.77 1.17 1.73 1.1 2.82.04 1.12-.4 2.1-1.27 2.82-1 .8-2.12 1.14-3.4 1.1-1.25 0-2.3-.23-3.45-.73zM883.22 296.64h.32c1.1-.07 2.04.23 2.87.93.77.7 1.12 1.58 1.07 2.6.03 1.1-.42 2.06-1.3 2.77-1.03.76-2.14 1.1-3.43 1.04-1.2 0-2.25-.23-3.36-.7v-1.44c1.13.4 2.15.6 3.36.63.8.07 1.48-.14 2.12-.6.53-.45.8-1.04.74-1.72 0-1.44-.92-2.17-2.76-2.17-.62 0-1.14.03-1.76.1v-1.18l3.8-4.1h-5.3v-1.45h7.36v1.4z" stroke="#fff" stroke-opacity="0" fill="#fff"/><path d="M877.84 313.56c-.17 0-.3-.03-.45-.12-3-1.73-5.8-2.8-9.2-3.46-1.86-.32-7.9-1.73-7.9-6.05 0-1.95.78-3.26 1.76-4.9 1.5-2.2 2.28-4.44 2.4-7.1 0-2.56-.68-4.7-2.12-6.85-.2-.32-.17-.7.07-1.02l1.42-1.73c.28-.32.73-.42 1.12-.2 1.9 1.1 3.7 1.57 5.92 1.6 2.42.04 4.5-.6 6.46-2 .3-.23.73-.23 1 0 2 1.4 4.08 2.04 6.5 2 2.17-.03 4.03-.54 5.92-1.6.4-.22.85-.12 1.13.2l1.4 1.73c.24.28.28.7.07 1.02-1.44 2.1-2.07 4.3-2.1 6.85 0 3.07 1.26 5.18 2.38 7.1.98 1.64 1.75 2.95 1.75 4.9 0 4.32-6.03 5.73-7.9 6.05-3.4.67-6.2 1.7-9.17 3.46-.14.1-.28.12-.46.12zm-13.67-28.96c1.36 2.3 2 4.58 2 7.23 0 3.56-1.44 6.02-2.63 7.97-.88 1.54-1.48 2.56-1.48 4.03 0 3.08 5.37 4.2 6.42 4.4 3.47.66 6.28 1.72 9.33 3.45 3.06-1.73 5.9-2.8 9.33-3.46 1.1-.2 6.45-1.3 6.45-4.4 0-1.46-.6-2.48-1.5-4.02-1.16-1.95-2.63-4.4-2.63-7.97.03-2.65.66-4.93 2.07-7.23l-.57-.67c-1.96 1-3.9 1.47-6.13 1.47-2.6.03-4.8-.58-7-1.98-2.2 1.4-4.43 2-7.03 1.98-2.25 0-4.14-.48-6.14-1.47z" stroke="#fff" stroke-opacity="0" fill="#fff"/><path d="M877.85 318.75c-.2 0-.4-.04-.57-.17-3.1-2.2-6.13-3.54-9.86-4.32-7.23-1.3-11.52-5.23-11.52-10.42.1-2.63.8-4.88 2.32-7.08.96-1.6 1.75-2.98 1.75-4.9-.08-2.62-1.18-4.82-3.2-6.6-.4-.26-.48-.82-.17-1.2.04 0 .04-.05.04-.05 0-.08 5.17-6.17 6.36-7.72.13-.26.4-.4.65-.4.3 0 .53.1.75.3 1.67 1.95 3.8 3.03 6.44 3.16 2.46 0 4.38-1.08 6.23-3.45.35-.4.96-.5 1.35-.14l.14.13c1.84 2.4 3.76 3.44 6.22 3.44 2.63-.13 4.78-1.2 6.44-3.15.22-.23.44-.3.75-.3.26 0 .52.12.65.38 1.2 1.55 6.32 7.64 6.36 7.73.13.18.22.4.17.66 0 .26-.13.43-.3.6-2.02 1.78-3.1 3.98-3.2 6.6 0 1.92.83 3.3 1.75 4.9 1.54 2.2 2.24 4.45 2.32 7.08 0 5.2-4.3 9.12-11.52 10.42-3.73.78-6.75 2.07-9.86 4.32-.13.1-.3.17-.5.17zM858.6 284.5c2.12 2.06 3.17 4.48 3.2 7.37 0 2.38-1 4.1-2 5.8-1.05 1.85-2.06 3.54-2.06 6.22 0 6.3 7.67 8.15 10 8.6 3.8.76 6.92 2.06 10.1 4.22 3.17-2.16 6.28-3.46 10.1-4.23 2.32-.45 10-2.3 10-8.6 0-2.7-1.02-4.33-2.07-6.23-1-1.73-2.02-3.46-2.02-5.8.04-2.9 1.1-5.3 3.2-7.38-1.18-1.4-3.8-4.55-5.2-6.32-2 1.9-4.3 2.9-7.03 2.98-2.85 0-5.26-1.17-7-3.33-1.8 2.16-4.22 3.33-7.07 3.33-2.7-.1-5.04-1.08-7-2.98-1.28 1.77-3.95 4.92-5.14 6.3z" stroke="#fff" stroke-opacity="0" fill="#fff"/><use xlink:href="#j" transform="matrix(1,0,0,1,814.9408329966116,338.56202646859134) translate(15.101851851851848 12.444444444444446)"/><use xlink:href="#k" transform="matrix(1,0,0,1,814.9408329966116,338.56202646859134) translate(78.14506172839506 12.444444444444446)"/><path d="M764.17 222.66h101.67c6.62 0 12 5.37 12 12v29.54" stroke="#333" fill="none"/><path d="M764.18 223.16h-.54l.03-.06v-.94h.5zM878.34 264.7h-1v-.5h1z" fill="#333"/><path d="M1016.5 224.1h-16.8c-.77 0-1.38-.62-1.38-1.37v-2.06c0-7.7 5.05-14.14 12.55-15.95.35-.08.67-.04 1 .14 2.2 1.18 4.6 1.18 6.8 0 .32-.18.63-.22.98-.14 1.97.5 3.6 1.2 5.27 2.3l-1.55 2.3c-1.25-.8-2.42-1.36-3.88-1.74-2.8 1.28-5.68 1.28-8.47 0-5.98 1.67-9.95 6.9-9.95 13.1v.67h15.43z" stroke="#fff" stroke-opacity="0" fill="#333"/><path d="M1015.24 208.44c-5 0-9.05-4.05-9.05-9.04 0-4.98 4.04-9.03 9.04-9.03 5-.06 9.07 3.96 9.13 8.93.03 3.45-1.7 6.4-4.75 8.02-1.4.78-2.76 1.12-4.38 1.12zm0-15.33c-3.5 0-6.35 2.82-6.36 6.3 0 2.37 1.2 4.4 3.3 5.52 1.97 1.06 4.15 1.06 6.13 0 2.12-1.14 3.34-3.2 3.3-5.6-.03-3.46-2.9-6.22-6.36-6.2zM1061.8 224.1H1045v-2.75h15.42v-.68c0-6.2-3.97-11.43-9.94-13.1-2.8 1.3-5.68 1.3-8.48 0-1.46.4-2.66.97-3.92 1.84l-1.57-2.26c1.7-1.17 3.32-1.9 5.3-2.4.34-.1.68-.05 1 .13 2.2 1.18 4.6 1.18 6.83 0 .32-.18.64-.22.98-.14 7.5 1.8 12.57 8.25 12.57 15.94v2.06c0 .75-.62 1.36-1.36 1.37z" stroke="#fff" stroke-opacity="0" fill="#333"/><path d="M1046.2 208.44c-5.03 0-9.1-4.1-9.1-9.12 0-5.03 4.1-9.1 9.15-9.1 5.03 0 9.1 4.1 9.1 9.13 0 3.43-1.73 6.34-4.74 7.98-1.4.77-2.78 1.1-4.4 1.1zm0-15.3c-3.47-.03-6.32 2.77-6.34 6.27-.02 2.38 1.2 4.4 3.3 5.5 1.96 1.08 4.15 1.08 6.13 0 2.13-1.12 3.35-3.2 3.32-5.62-.08-3.46-2.94-6.23-6.4-6.15zM1052.78 255.1h-44.13c-.75 0-1.36-.62-1.36-1.38v-2.93c-.06-10.62 6.97-19.54 17.28-22.04.37-.1.7-.06 1.03.1 3.3 1.77 6.9 1.77 10.22 0 .28-.16.6-.2.98-.1 10.36 2.48 17.4 11.4 17.34 22.03v2.92c0 .76-.6 1.37-1.36 1.37zm-42.73-2.76h41.33v-1.55c0-9.14-5.9-16.82-14.76-19.2-3.9 1.88-7.97 1.88-11.86 0-8.85 2.38-14.7 10.06-14.7 19.2z" stroke="#fff" stroke-opacity="0" fill="#333"/><path d="M1030.76 232.9c-2.2 0-4.05-.46-6-1.5-6-3.3-8.22-10.82-4.93-16.84 3.3-6 10.83-8.2 16.87-4.94 6 3.3 8.23 10.82 4.94 16.84-1.2 2.18-2.75 3.75-4.94 4.94-1.9 1.04-3.78 1.5-5.94 1.5zm0-21.7c-3.6-.04-6.7 1.77-8.45 4.95-2.47 4.58-.78 10.34 3.8 12.84 3 1.58 6.28 1.58 9.26 0 3.2-1.75 5.04-4.85 5-8.47-.08-5.2-4.38-9.4-9.6-9.32z" stroke="#fff" stroke-opacity="0" fill="#333"/><path d="M1062.18 224.1h-32.2c-.55 0-1-.44-1-1v-2.13c-.03-7.74 5.1-14.25 12.62-16.08.27-.08.5-.04.75.07 2.4 1.3 5.03 1.3 7.45 0 .2-.1.45-.15.72-.08 7.55 1.8 12.68 8.3 12.65 16.07v2.13c0 .56-.45 1-1 1zm-31.18-2h30.15v-1.13c0-6.66-4.3-12.26-10.77-14-2.83 1.37-5.8 1.37-8.64 0-6.46 1.74-10.74 7.34-10.74 14z" stroke="#fff" stroke-opacity="0" stroke-width=".73" fill="#fff" fill-opacity="0"/><path d="M1031.5 224.1h-32.2c-.54 0-.98-.44-.98-1v-2.13c-.04-7.74 5.1-14.25 12.6-16.08.28-.08.52-.04.76.07 2.4 1.3 5.03 1.3 7.45 0 .2-.1.45-.15.72-.08 7.56 1.8 12.68 8.3 12.65 16.07v2.13c0 .56-.45 1-1 1zm-31.17-2h30.15v-1.13c0-6.66-4.3-12.26-10.77-14-2.82 1.37-5.8 1.37-8.63 0-6.46 1.74-10.74 7.34-10.74 14z" stroke="#fff" stroke-opacity="0" stroke-width=".73" fill="#fff" fill-opacity="0"/><path d="M997.82 222.66H889.84c-6.63 0-12 5.37-12 12v29.54" stroke="#333" fill="none"/><path d="M998.32 223.1l.02.06h-.54v-1h.52zM878.34 264.7h-1v-.5h1z" fill="#333"/><path d="M918.77 569.13H1150c6.62 0 12 5.37 12 12v438.37" stroke="#333" fill="none"/><path d="M918.78 569.63h-.54l.03-.5-.02-.5h.53zM1162.5 1020h-1v-.5h1z" fill="#333"/><path d="M877.84 330.06v99.07c0 .12.1.22.2.22.13 0 .23.1.23.2v99.08" stroke="#333" fill="none"/><path d="M878.34 330.07h-1v-.5h1zM878.77 529.16l-.5-.03-.5.02v-.53h1z" fill="#333"/><path d="M477.68 609.13h113.5v19.7h-113.5z" stroke="#000" stroke-opacity="0" fill="#fff" fill-opacity="0"/><use xlink:href="#l" transform="matrix(1,0,0,1,482.6836627507722,614.128102736972) translate(0 13.511111111111113)"/><use xlink:href="#m" transform="matrix(1,0,0,1,482.6836627507722,614.128102736972) translate(0 30.933333333333337)"/><path d="M1045 606.35h113.5v19.7H1045z" stroke="#000" stroke-opacity="0" fill="#fff" fill-opacity="0"/><use xlink:href="#n" transform="matrix(1,0,0,1,1050.0047675169494,611.3540244140081) translate(0 13.511111111111113)"/><use xlink:href="#o" transform="matrix(1,0,0,1,1050.0047675169494,611.3540244140081) translate(0 30.933333333333337)"/><path d="M455.13 37.57c0-4.42 3.58-8 8-8h836.75c4.42 0 8 3.58 8 8v60.3c0 4.4-3.58 8-8 8H463.13c-4.42 0-8-3.6-8-8z" stroke="#000" stroke-opacity="0" stroke-width="2" fill="#fff" fill-opacity="0"/><use xlink:href="#p" transform="matrix(1,0,0,1,459.1297401400948,33.56905468838445) translate(295.6458024691358 23.657777777777778)"/><use xlink:href="#q" transform="matrix(1,0,0,1,459.1297401400948,33.56905468838445) translate(455.6013580246913 23.657777777777778)"/><use xlink:href="#r" transform="matrix(1,0,0,1,459.1297401400948,33.56905468838445) translate(320.04703703703706 57.80444444444444)"/><use xlink:href="#s" transform="matrix(1,0,0,1,459.1297401400948,33.56905468838445) translate(432.80259259259265 57.80444444444444)"/><use xlink:href="#t" transform="matrix(1,0,0,1,459.1297401400948,33.56905468838445) translate(471.9902469135803 57.80444444444444)"/><path d="M610.64 103.37h547.16M610.67 103.37h-1.03M1157.77 103.37h1.03" stroke="#a9afb8" stroke-width="2" fill="none"/><path d="M455.13 108c0-4.42 3.58-8 8-8h837.7c4.42 0 8 3.58 8 8v2.84c0 4.42-3.58 8-8 8h-837.7c-4.42 0-8-3.58-8-8z" stroke="#000" stroke-opacity="0" stroke-width="2" fill="#fff" fill-opacity="0"/><use xlink:href="#u" transform="matrix(1,0,0,1,459.12974014009524,104) translate(293.8908127572017 14.917037037037037)"/><use xlink:href="#v" transform="matrix(1,0,0,1,459.12974014009524,104) translate(352.399146090535 14.917037037037037)"/><use xlink:href="#w" transform="matrix(1,0,0,1,459.12974014009524,104) translate(365.6559362139918 14.917037037037037)"/><use xlink:href="#x" transform="matrix(1,0,0,1,459.12974014009524,104) translate(379.8050102880659 14.917037037037037)"/><use xlink:href="#y" transform="matrix(1,0,0,1,459.12974014009524,104) translate(428.20079218106997 14.917037037037037)"/><use xlink:href="#z" transform="matrix(1,0,0,1,459.12974014009524,104) translate(440.6502777777778 14.917037037037037)"/><use xlink:href="#A" transform="matrix(1,0,0,1,459.12974014009524,104) translate(499.2435905349794 14.917037037037037)"/><use xlink:href="#B" transform="matrix(1,0,0,1,459.12974014009524,104) translate(524.7374176954733 14.917037037037037)"/><path d="M878.27 800c-22.08 0-40-17.92-40-40s17.92-40 40-40 40 17.92 40 40-17.92 40-40 40zm0-76.56c-20.24 0-36.56 16.32-36.56 36.56 0 20.24 16.33 36.56 36.57 36.56 20.24 0 36.56-16.32 36.56-36.56 0-20.24-16.32-36.56-36.56-36.56z" stroke="#fff" stroke-opacity="0" fill="#693cc5"/><path d="M897.4 784.03h-6.37c-.96 0-1.7-.75-1.7-1.7v-33c-3.47-1.8-6.77-2.6-10.64-2.7-4.27.1-7.8 1.04-11.56 3.07v32.63c0 .95-.76 1.7-1.67 1.7h-6.34c-.96 0-1.7-.75-1.7-1.7V745.2c0-.5.2-.93.57-1.26 6.1-5 12.85-7.32 20.7-7.13 7.4-.14 13.8 1.94 19.75 6.33.46.33.67.8.67 1.33v37.87c0 .95-.75 1.7-1.7 1.7zm-4.66-3.4h2.96V745.3c-5.2-3.58-10.67-5.2-17-5.1-6.73-.18-12.52 1.7-17.86 5.77v34.66h2.92V748.6c0-.65.33-1.22.9-1.5 4.52-2.55 8.86-3.78 14.03-3.87 4.7.14 8.7 1.18 12.87 3.4h.17c.62.28 1 .85 1 1.56z" stroke="#fff" stroke-opacity="0" fill="#693cc5"/><use xlink:href="#C" transform="matrix(1,0,0,1,808.269510575977,809) translate(3.549999999999997 14.4)"/><use xlink:href="#D" transform="matrix(1,0,0,1,808.269510575977,809) translate(69.5 14.4)"/><path d="M878.27 609.13c-22.08 0-40-17.92-40-40s17.92-40 40-40 40 17.92 40 40-17.92 40-40 40zm0-76.8c-20.32 0-36.8 16.48-36.8 36.8 0 20.32 16.48 36.8 36.8 36.8 20.32 0 36.8-16.48 36.8-36.8 0-20.32-16.48-36.8-36.8-36.8z" stroke="#fff" stroke-opacity="0" stroke-width="3" fill="#693cc5"/><path d="M902.13 580.32h-3.06v-6.4c0-.9-.7-1.6-1.58-1.6h-4.84v-6.4c0-.88-.72-1.57-1.58-1.57h-11.2v-4.8h11.2c.86 0 1.58-.76 1.58-1.6v-14.43c0-.9-.72-1.6-1.58-1.6h-25.62c-.87 0-1.58.7-1.58 1.6v14.43c0 .84.7 1.6 1.58 1.6h11.2v4.8h-11.2c-.87 0-1.58.7-1.58 1.58v6.4h-4.8c-.9 0-1.62.7-1.62 1.6v6.4h-3.05c-.86 0-1.57.73-1.57 1.58v8.04c0 .9.7 1.6 1.58 1.6h7.85c.92 0 1.63-.7 1.63-1.6v-8.03c0-.84-.7-1.58-1.63-1.58h-1.58v-4.8h8v4.8h-1.58c-.93 0-1.64.74-1.64 1.6v8.02c0 .9.7 1.6 1.63 1.6h8c.85 0 1.56-.7 1.56-1.6v-8.03c0-.84-.7-1.58-1.57-1.58h-3.22v-6.4c0-.9-.72-1.6-1.63-1.6h-3.16v-4.8h22.35v4.8h-3.16c-.93 0-1.64.7-1.64 1.6v6.4h-3.2c-.87 0-1.6.74-1.6 1.6v8.02c0 .9.73 1.6 1.6 1.6h8c.9 0 1.62-.7 1.62-1.6v-8.03c0-.84-.72-1.58-1.63-1.58h-1.58v-4.8h8v4.8h-1.74c-.86 0-1.58.74-1.58 1.6v8.02c0 .9.72 1.6 1.58 1.6h8.05c.86 0 1.58-.7 1.58-1.6v-8.03-.04c-.05-.85-.77-1.54-1.63-1.54zm-41.46 7.98h-4.63v-4.76h4.63zm12.8-4.76v4.76h-4.8v-4.76zm-6.38-27.23v-11.15h22.35v11.16zm20.77 32h-4.8v-4.76h4.8zm12.63 0h-4.8v-4.76h4.8z" stroke="#fff" stroke-opacity="0" stroke-width="3" fill="#693cc5"/><use xlink:href="#E" transform="matrix(1,0,0,1,808.269510575977,618.128102736972) translate(3.5749999999999886 14.4)"/><use xlink:href="#F" transform="matrix(1,0,0,1,808.269510575977,618.128102736972) translate(96.425 14.4)"/><use xlink:href="#G" transform="matrix(1,0,0,1,808.269510575977,618.128102736972) translate(34.55 36)"/><path d="M517.84 1008c0-4.42 3.58-8 8-8h704c4.42 0 8 3.58 8 8v164c0 4.42-3.58 8-8 8h-704c-4.42 0-8-3.58-8-8z" stroke="#dd3522" fill="#fff" fill-opacity="0"/><g><use xlink:href="#H" transform="matrix(1,0,0,1,517.8369812067916,1020) translate(300.075 14.4)"/><use xlink:href="#I" transform="matrix(1,0,0,1,517.8369812067916,1020) translate(369.975 14.4)"/></g><path d="M422.55 928c0-4.42 3.58-8 8-8h329.4c4.43 0 8 3.58 8 8v264c0 4.42-3.57 8-8 8h-329.4c-4.42 0-8-3.58-8-8z" fill="#147eba" fill-opacity=".13"/><path d="M422.55 920h56v56h-56v-56z" stroke="#fff" stroke-opacity="0" fill="#147eba"/><path d="M465.93 942.18c-.15-.17-.34-.25-.56-.25h-5.15v-5.58c-.03-2.54-.97-4.7-2.84-6.4-1.9-1.84-4.15-2.75-6.77-2.75-2.64 0-4.9.83-6.8 2.62-1.9 1.7-2.86 3.87-2.9 6.4v5.66h-5.14c-.25 0-.44.1-.6.25-.15.17-.2.34-.2.6V968c0 .43.33.8.8.8h29.58c.47 0 .8-.37.8-.8v-25.28c0-.2-.05-.38-.2-.54zm-23.46-5.9c.03-2.13.8-3.88 2.37-5.3 1.62-1.5 3.53-2.2 5.74-2.2 2.22 0 4.12.75 5.7 2.25 1.54 1.4 2.32 3.2 2.32 5.32v5.58h-16.16zm22.1 30.94h-28.03v-23.7h28.02z" stroke="#fff" stroke-opacity="0" fill="#fff"/><path d="M449.75 957.3v6.25h1.6v-6.23c2.13-.4 3.62-2.2 3.63-4.35 0-2.43-1.98-4.4-4.4-4.43-2.2-.03-4.07 1.5-4.44 3.68-.4 2.4 1.2 4.68 3.6 5.1zm.82-7.15c.78 0 1.44.27 2 .82.54.56.82 1.22.8 2 .03 1.55-1.2 2.8-2.74 2.82h-.06c-1.56.1-2.92-1.06-3.04-2.62-.12-1.56 1.05-2.93 2.6-3.03.16-.02.28-.02.44 0z" stroke="#fff" stroke-opacity="0" fill="#fff"/><g><use xlink:href="#J" transform="matrix(1,0,0,1,493.5489735520746,940) translate(0 14.4)"/><use xlink:href="#K" transform="matrix(1,0,0,1,493.5489735520746,940) translate(0 36)"/></g><path d="M988.23 928c0-4.42 3.58-8 8-8h329.4c4.43 0 8 3.58 8 8v264c0 4.42-3.57 8-8 8h-329.4c-4.42 0-8-3.58-8-8z" fill="#147eba" fill-opacity=".13"/><path d="M988.23 920h56v56h-56v-56z" stroke="#fff" stroke-opacity="0" fill="#147eba"/><path d="M1031.6 942.18c-.15-.17-.33-.25-.55-.25h-5.15v-5.58c-.03-2.54-.97-4.7-2.84-6.4-1.9-1.84-4.15-2.75-6.77-2.75-2.66 0-4.9.83-6.8 2.62-1.92 1.7-2.88 3.87-2.9 6.4v5.66h-5.16c-.25 0-.44.1-.6.25-.15.17-.2.34-.2.6V968c0 .43.33.8.8.8h29.58c.46 0 .8-.37.8-.8v-25.28c0-.2-.06-.38-.2-.54zm-23.45-5.9c.03-2.13.8-3.88 2.37-5.3 1.62-1.5 3.52-2.2 5.74-2.2 2.2 0 4.12.75 5.7 2.25 1.54 1.4 2.32 3.2 2.32 5.32v5.58h-16.17zm22.1 30.94h-28.03v-23.7h28.02z" stroke="#fff" stroke-opacity="0" fill="#fff"/><path d="M1015.42 957.3v6.25h1.6v-6.23c2.13-.4 3.63-2.2 3.64-4.35 0-2.43-1.98-4.4-4.42-4.43-2.2-.03-4.05 1.5-4.42 3.68-.4 2.4 1.2 4.68 3.6 5.1zm.82-7.15c.8 0 1.45.27 2 .82.55.56.83 1.22.82 2 0 1.55-1.2 2.8-2.75 2.82h-.06c-1.56.1-2.92-1.06-3.03-2.62-.1-1.56 1.06-2.93 2.62-3.03.15-.02.27-.02.42 0z" stroke="#fff" stroke-opacity="0" fill="#fff"/><g><use xlink:href="#L" transform="matrix(1,0,0,1,1059.2266471185353,940) translate(0 14.4)"/><use xlink:href="#M" transform="matrix(1,0,0,1,1059.2266471185353,940) translate(0 36)"/></g><path d="M878.27 609.63V719.5" stroke="#333" fill="none"/><path d="M878.27 609.13l.5-.02v.54h-1v-.54zM878.77 720.03l-.5-.03-.5.02v-.53h1z" fill="#333"/><path d="M534.55 1020h120v120h-120v-120z" stroke="#fff" stroke-opacity="0" stroke-width="2" fill="#d86613"/><path d="M631.35 1084.8h-8.02v-3.18h8.02v-38.44h-38.43v8.02h-3.2v-8.02c0-1.75 1.45-3.18 3.2-3.18h38.43c1.75 0 3.18 1.43 3.18 3.18v38.44c0 1.75-1.43 3.18-3.18 3.18zM596.15 1120h-38.43c-1.75 0-3.2-1.43-3.2-3.18v-38.44c0-1.75 1.45-3.18 3.2-3.18h8v3.18h-8v38.44h38.43v-8.02h3.18v8.02c0 1.75-1.43 3.18-3.18 3.18z" stroke="#fff" stroke-opacity="0" stroke-width="2" fill="#fff"/><path d="M620.15 1065.6v-3.2h-4.8c-.1-1.7-1.5-3.08-3.2-3.2v-4.8h-3.2v4.8h-4.77v-4.8h-3.23v4.8h-4.8v-4.8h-3.2v4.8h-4.8v-4.8h-3.17v4.8h-4.82v-4.8h-3.22v4.8c-1.7.12-3.07 1.5-3.18 3.2h-4.8v3.2h4.8v4.83h-4.8v3.17h4.8v4.8h-4.8v3.2h4.8v4.8h-4.8v3.23h4.8v4.76h-4.8v3.2h4.8c.1 1.7 1.5 3.08 3.18 3.2v4.8h3.22v-4.8h4.82v4.8h3.17v-4.8h4.8v4.8h3.2v-4.8h4.8v4.8h3.23v-4.8h4.76v4.8h3.22v-4.8c1.7-.12 3.08-1.5 3.18-3.2h4.8v-3.2h-4.8v-4.77h4.8v-3.23h-4.8v-4.8h4.8v-3.2h-4.8v-4.8h4.8v-3.17h-4.8v-4.82zm-8 31.7c0 .16-.14.3-.3.3h-34.6c-.16 0-.3-.14-.3-.3v-34.6c0-.16.14-.3.3-.3h34.6c.16 0 .3.14.3.3z" stroke="#fff" stroke-opacity="0" stroke-width="2" fill="#fff"/><g><use xlink:href="#N" transform="matrix(1,0,0,1,504.5503093868622,1149) translate(37.05 14.4)"/><use xlink:href="#O" transform="matrix(1,0,0,1,504.5503093868622,1149) translate(108 14.4)"/></g><path d="M1102 1020h120v120h-120v-120z" stroke="#fff" stroke-opacity="0" stroke-width="2" fill="#d86613"/><path d="M1198.8 1084.8h-8.03v-3.18h8.02v-38.44h-38.45v8.02h-3.18v-8.02c0-1.75 1.44-3.18 3.18-3.18h38.44c1.74 0 3.17 1.43 3.17 3.18v38.44c0 1.75-1.43 3.18-3.18 3.18zM1163.6 1120h-38.45c-1.74 0-3.18-1.43-3.18-3.18v-38.44c0-1.75 1.44-3.18 3.18-3.18h8.02v3.18h-8.02v38.44h38.44v-8.02h3.17v8.02c0 1.75-1.43 3.18-3.18 3.18z" stroke="#fff" stroke-opacity="0" stroke-width="2" fill="#fff"/><path d="M1187.6 1065.6v-3.2h-4.82c-.1-1.7-1.5-3.08-3.18-3.2v-4.8h-3.22v4.8h-4.77v-4.8h-3.2v4.8h-4.82v-4.8h-3.18v4.8h-4.8v-4.8h-3.2v4.8h-4.8v-4.8h-3.22v4.8c-1.7.12-3.08 1.5-3.18 3.2h-4.8v3.2h4.8v4.83h-4.8v3.17h4.8v4.8h-4.8v3.2h4.8v4.8h-4.8v3.23h4.8v4.76h-4.8v3.2h4.8c.1 1.7 1.5 3.08 3.18 3.2v4.8h3.22v-4.8h4.8v4.8h3.2v-4.8h4.8v4.8h3.18v-4.8h4.8v4.8h3.23v-4.8h4.78v4.8h3.22v-4.8c1.7-.12 3.07-1.5 3.18-3.2h4.8v-3.2h-4.8v-4.77h4.8v-3.23h-4.8v-4.8h4.8v-3.2h-4.8v-4.8h4.8v-3.17h-4.8v-4.82zm-8 31.7c0 .16-.15.3-.3.3h-34.62c-.15 0-.3-.14-.3-.3v-34.6c0-.16.15-.3.3-.3h34.6c.17 0 .32.14.32.3z" stroke="#fff" stroke-opacity="0" stroke-width="2" fill="#fff"/><g><use xlink:href="#N" transform="matrix(1,0,0,1,1071.988711765036,1149) translate(37.05 14.4)"/><use xlink:href="#O" transform="matrix(1,0,0,1,1071.988711765036,1149) translate(108 14.4)"/></g><defs><path fill="#333" d="M199 0l-22-63H83L61 0H9l90-248h61L250 0h-51zm-33-102l-36-108c-10 38-24 72-36 108h72" id="P"/><path fill="#333" d="M275 0h-61l-44-196L126 0H64L0-248h53L97-49l45-199h58l43 199 44-199h52" id="Q"/><path fill="#333" d="M169-182c-1-43-94-46-97-3 18 66 151 10 154 114 3 95-165 93-204 36-6-8-10-19-12-30l50-8c3 46 112 56 116 5-17-69-150-10-154-114-4-87 153-88 188-35 5 8 8 18 10 28" id="R"/><g id="a"><use transform="matrix(0.04320987654320988,0,0,0.04320987654320988,0,0)" xlink:href="#P"/><use transform="matrix(0.04320987654320988,0,0,0.04320987654320988,10.327160493827162,0)" xlink:href="#Q"/><use transform="matrix(0.04320987654320988,0,0,0.04320987654320988,24.97530864197531,0)" xlink:href="#R"/></g><path fill="#333" d="M67-125c0 53 21 87 73 88 37 1 54-22 65-47l45 17C233-25 199 4 140 4 58 4 20-42 15-125 8-235 124-281 211-232c18 10 29 29 36 50l-46 12c-8-25-30-41-62-41-52 0-71 34-72 86" id="S"/><path fill="#333" d="M25 0v-261h50V0H25" id="T"/><path fill="#333" d="M110-194c64 0 96 36 96 99 0 64-35 99-97 99-61 0-95-36-95-99 0-62 34-99 96-99zm-1 164c35 0 45-28 45-65 0-40-10-65-43-65-34 0-45 26-45 65 0 36 10 65 43 65" id="U"/><path fill="#333" d="M85 4C-2 5 27-109 22-190h50c7 57-23 150 33 157 60-5 35-97 40-157h50l1 190h-47c-2-12 1-28-3-38-12 25-28 42-61 42" id="V"/><path fill="#333" d="M88-194c31-1 46 15 58 34l-1-101h50l1 261h-48c-2-10 0-23-3-31C134-8 116 4 84 4 32 4 16-41 15-95c0-56 19-97 73-99zm17 164c33 0 40-30 41-66 1-37-9-64-41-64s-38 30-39 65c0 43 13 65 39 65" id="W"/><g id="b"><use transform="matrix(0.04320987654320988,0,0,0.04320987654320988,0,0)" xlink:href="#S"/><use transform="matrix(0.04320987654320988,0,0,0.04320987654320988,11.19135802469136,0)" xlink:href="#T"/><use transform="matrix(0.04320987654320988,0,0,0.04320987654320988,15.512345679012347,0)" xlink:href="#U"/><use transform="matrix(0.04320987654320988,0,0,0.04320987654320988,24.97530864197531,0)" xlink:href="#V"/><use transform="matrix(0.04320987654320988,0,0,0.04320987654320988,34.43827160493827,0)" xlink:href="#W"/></g><path d="M266 0h-40l-56-210L115 0H75L2-248h35L96-30l15-64 43-154h32l59 218 59-218h35" id="X"/><path d="M100-194c63 0 86 42 84 106H49c0 40 14 67 53 68 26 1 43-12 49-29l28 8c-11 28-37 45-77 45C44 4 14-33 15-96c1-61 26-98 85-98zm52 81c6-60-76-77-97-28-3 7-6 17-6 28h103" id="Y"/><path d="M115-194c53 0 69 39 70 98 0 66-23 100-70 100C84 3 66-7 56-30L54 0H23l1-261h32v101c10-23 28-34 59-34zm-8 174c40 0 45-34 45-75 0-40-5-75-45-74-42 0-51 32-51 76 0 43 10 73 51 73" id="Z"/><path d="M205 0l-28-72H64L36 0H1l101-248h38L239 0h-34zm-38-99l-47-123c-12 45-31 82-46 123h93" id="aa"/><path d="M115-194c55 1 70 41 70 98S169 2 115 4C84 4 66-9 55-30l1 105H24l-1-265h31l2 30c10-21 28-34 59-34zm-8 174c40 0 45-34 45-75s-6-73-45-74c-42 0-51 32-51 76 0 43 10 73 51 73" id="ab"/><path d="M140-251c81 0 123 46 123 126C263-46 219 4 140 4 59 4 17-45 17-125s42-126 123-126zm0 227c63 0 89-41 89-101s-29-99-89-99c-61 0-89 39-89 99S79-25 140-24" id="ac"/><path d="M117-194c89-4 53 116 60 194h-32v-121c0-31-8-49-39-48C34-167 62-67 57 0H25l-1-190h30c1 10-1 24 2 32 11-22 29-35 61-36" id="ad"/><g id="c"><use transform="matrix(0.04691358024691358,0,0,0.04691358024691358,0,0)" xlink:href="#X"/><use transform="matrix(0.04691358024691358,0,0,0.04691358024691358,15.57530864197531,0)" xlink:href="#Y"/><use transform="matrix(0.04691358024691358,0,0,0.04691358024691358,24.958024691358027,0)" xlink:href="#Z"/><use transform="matrix(0.04691358024691358,0,0,0.04691358024691358,34.34074074074074,0)" xlink:href="#aa"/><use transform="matrix(0.04691358024691358,0,0,0.04691358024691358,45.6,0)" xlink:href="#ab"/><use transform="matrix(0.04691358024691358,0,0,0.04691358024691358,54.98271604938272,0)" xlink:href="#ab"/><use transform="matrix(0.04691358024691358,0,0,0.04691358024691358,64.36543209876544,0)" xlink:href="#ac"/><use transform="matrix(0.04691358024691358,0,0,0.04691358024691358,77.50123456790124,0)" xlink:href="#ad"/><use transform="matrix(0.04691358024691358,0,0,0.04691358024691358,86.88395061728396,0)" xlink:href="#Y"/></g><path fill="#333" d="M23 0v-37h61v-169l-59 37v-38l62-41h46v211h57V0H23" id="ae"/><path fill="#333" d="M101-251c68 0 84 54 84 127C185-50 166 4 99 4S15-52 14-124c-1-75 17-127 87-127zm-1 216c37-5 36-46 36-89s4-89-36-89c-39 0-36 45-36 89 0 43-3 85 36 89" id="af"/><path fill="#333" d="M24 0v-54h51V0H24" id="ag"/><path fill="#333" d="M4 7l51-268h42L46 7H4" id="ah"/><path fill="#333" d="M115-159c48 0 72 30 72 78 0 54-30 85-83 85-64 0-91-50-91-122 0-98 58-163 141-120 15 8 21 24 27 44l-47 6c-5-31-48-31-61-4-7 14-11 33-11 60 9-17 28-27 53-27zM102-35c24 0 36-20 36-45s-11-43-37-43c-23 0-36 14-36 38 0 27 11 50 37 50" id="ai"/><g id="d"><use transform="matrix(0.04320987654320988,0,0,0.04320987654320988,0,0)" xlink:href="#ae"/><use transform="matrix(0.04320987654320988,0,0,0.04320987654320988,8.641975308641976,0)" xlink:href="#af"/><use transform="matrix(0.04320987654320988,0,0,0.04320987654320988,17.283950617283953,0)" xlink:href="#ag"/><use transform="matrix(0.04320987654320988,0,0,0.04320987654320988,21.60493827160494,0)" xlink:href="#af"/><use transform="matrix(0.04320987654320988,0,0,0.04320987654320988,30.24691358024692,0)" xlink:href="#ag"/><use transform="matrix(0.04320987654320988,0,0,0.04320987654320988,34.567901234567906,0)" xlink:href="#af"/><use transform="matrix(0.04320987654320988,0,0,0.04320987654320988,43.20987654320988,0)" xlink:href="#ag"/><use transform="matrix(0.04320987654320988,0,0,0.04320987654320988,47.53086419753087,0)" xlink:href="#af"/><use transform="matrix(0.04320987654320988,0,0,0.04320987654320988,56.17283950617284,0)" xlink:href="#ah"/><use transform="matrix(0.04320987654320988,0,0,0.04320987654320988,60.49382716049384,0)" xlink:href="#ae"/><use transform="matrix(0.04320987654320988,0,0,0.04320987654320988,69.13580246913581,0)" xlink:href="#ai"/></g><path fill="#333" d="M210 0H11v-37l134-170H24v-41h178v36L68-41h142V0" id="aj"/><path fill="#333" d="M135-194c87-1 58 113 63 194h-50c-7-57 23-157-34-157-59 0-34 97-39 157H25l-1-190h47c2 12-1 28 3 38 12-26 28-41 61-42" id="ak"/><path fill="#333" d="M133-34C117-15 103 5 69 4 32 3 11-16 11-54c-1-60 55-63 116-61 1-26-3-47-28-47-18 1-26 9-28 27l-52-2c7-38 36-58 82-57s74 22 75 68l1 82c-1 14 12 18 25 15v27c-30 8-71 5-69-32zm-48 3c29 0 43-24 42-57-32 0-66-3-65 30 0 17 8 27 23 27" id="al"/><g id="e"><use transform="matrix(0.04320987654320988,0,0,0.04320987654320988,0,0)" xlink:href="#aj"/><use transform="matrix(0.04320987654320988,0,0,0.04320987654320988,9.462962962962964,0)" xlink:href="#U"/><use transform="matrix(0.04320987654320988,0,0,0.04320987654320988,18.925925925925927,0)" xlink:href="#ak"/><use transform="matrix(0.04320987654320988,0,0,0.04320987654320988,28.388888888888893,0)" xlink:href="#al"/></g><path fill="#333" d="M185-48c-13 30-37 53-82 52C43 2 14-33 14-96s30-98 90-98c62 0 83 45 84 108H66c0 31 8 55 39 56 18 0 30-7 34-22zm-45-69c5-46-57-63-70-21-2 6-4 13-4 21h74" id="am"/><g id="f"><use transform="matrix(0.04320987654320988,0,0,0.04320987654320988,0,0)" xlink:href="#W"/><use transform="matrix(0.04320987654320988,0,0,0.04320987654320988,9.462962962962964,0)" xlink:href="#am"/></g><path fill="#333" d="M25-224v-37h50v37H25zM25 0v-190h50V0H25" id="an"/><path fill="#333" d="M137-138c1-29-70-34-71-4 15 46 118 7 119 86 1 83-164 76-172 9l43-7c4 19 20 25 44 25 33 8 57-30 24-41C81-84 22-81 20-136c-2-80 154-74 161-7" id="ao"/><path fill="#333" d="M135-194c53 0 70 44 70 98 0 56-19 98-73 100-31 1-45-17-59-34 3 33 2 69 2 105H25l-1-265h48c2 10 0 23 3 31 11-24 29-35 60-35zM114-30c33 0 39-31 40-66 0-38-9-64-40-64-56 0-55 130 0 130" id="ap"/><path fill="#333" d="M135-194c52 0 70 43 70 98 0 56-19 99-73 100-30 1-46-15-58-35L72 0H24l1-261h50v104c11-23 29-37 60-37zM114-30c31 0 40-27 40-66 0-37-7-63-39-63s-41 28-41 65c0 36 8 64 40 64" id="aq"/><g id="g"><use transform="matrix(0.04320987654320988,0,0,0.04320987654320988,0,0)" xlink:href="#W"/><use transform="matrix(0.04320987654320988,0,0,0.04320987654320988,9.462962962962964,0)" xlink:href="#an"/><use transform="matrix(0.04320987654320988,0,0,0.04320987654320988,13.783950617283953,0)" xlink:href="#ao"/><use transform="matrix(0.04320987654320988,0,0,0.04320987654320988,22.425925925925934,0)" xlink:href="#ap"/><use transform="matrix(0.04320987654320988,0,0,0.04320987654320988,31.888888888888893,0)" xlink:href="#U"/><use transform="matrix(0.04320987654320988,0,0,0.04320987654320988,41.351851851851855,0)" xlink:href="#ak"/><use transform="matrix(0.04320987654320988,0,0,0.04320987654320988,50.81481481481482,0)" xlink:href="#an"/><use transform="matrix(0.04320987654320988,0,0,0.04320987654320988,55.13580246913581,0)" xlink:href="#aq"/><use transform="matrix(0.04320987654320988,0,0,0.04320987654320988,64.59876543209877,0)" xlink:href="#an"/><use transform="matrix(0.04320987654320988,0,0,0.04320987654320988,68.91975308641976,0)" xlink:href="#T"/><use transform="matrix(0.04320987654320988,0,0,0.04320987654320988,73.24074074074075,0)" xlink:href="#an"/><use transform="matrix(0.04320987654320988,0,0,0.04320987654320988,77.56172839506173,0)" xlink:href="#W"/><use transform="matrix(0.04320987654320988,0,0,0.04320987654320988,87.0246913580247,0)" xlink:href="#al"/><use transform="matrix(0.04320987654320988,0,0,0.04320987654320988,95.66666666666667,0)" xlink:href="#W"/><use transform="matrix(0.04320987654320988,0,0,0.04320987654320988,105.12962962962965,0)" xlink:href="#am"/></g><path fill="#333" d="M182-130c37 4 62 22 62 59C244 23 116-4 24 0v-248c84 5 203-23 205 63 0 31-19 50-47 55zM76-148c40-3 101 13 101-30 0-44-60-28-101-31v61zm0 110c48-3 116 14 116-37 0-48-69-32-116-35v72" id="ar"/><use transform="matrix(0.04320987654320988,0,0,0.04320987654320988,0,0)" xlink:href="#ar" id="h"/><use transform="matrix(0.04320987654320988,0,0,0.04320987654320988,0,0)" xlink:href="#P" id="i"/><path fill="#333" d="M233-177c-1 41-23 64-60 70L243 0h-38l-65-103H63V0H30v-248c88 3 205-21 203 71zM63-129c60-2 137 13 137-47 0-61-80-42-137-45v92" id="as"/><path fill="#333" d="M100-194c62-1 85 37 85 99 1 63-27 99-86 99S16-35 15-95c0-66 28-99 85-99zM99-20c44 1 53-31 53-75 0-43-8-75-51-75s-53 32-53 75 10 74 51 75" id="at"/><path fill="#333" d="M84 4C-5 8 30-112 23-190h32v120c0 31 7 50 39 49 72-2 45-101 50-169h31l1 190h-30c-1-10 1-25-2-33-11 22-28 36-60 37" id="au"/><path fill="#333" d="M59-47c-2 24 18 29 38 22v24C64 9 27 4 27-40v-127H5v-23h24l9-43h21v43h35v23H59v120" id="av"/><path fill="#333" d="M100-194c63 0 86 42 84 106H49c0 40 14 67 53 68 26 1 43-12 49-29l28 8c-11 28-37 45-77 45C44 4 14-33 15-96c1-61 26-98 85-98zm52 81c6-60-76-77-97-28-3 7-6 17-6 28h103" id="aw"/><path fill="#333" d="M54-142c48-35 137-8 131 61C196 18 31 33 14-55l32-4c7 23 22 37 52 37 35-1 51-22 54-58 4-55-73-65-99-34H22l8-134h141v27H59" id="ax"/><path fill="#333" d="M126-127c33 6 58 20 58 59 0 88-139 92-164 29-3-8-5-16-6-25l32-3c6 27 21 44 54 44 32 0 52-15 52-46 0-38-36-46-79-43v-28c39 1 72-4 72-42 0-27-17-43-46-43-28 0-47 15-49 41l-32-3c6-42 35-63 81-64 48-1 79 21 79 65 0 36-21 52-52 59" id="ay"/><g id="j"><use transform="matrix(0.04320987654320988,0,0,0.04320987654320988,0,0)" xlink:href="#as"/><use transform="matrix(0.04320987654320988,0,0,0.04320987654320988,11.19135802469136,0)" xlink:href="#at"/><use transform="matrix(0.04320987654320988,0,0,0.04320987654320988,19.833333333333336,0)" xlink:href="#au"/><use transform="matrix(0.04320987654320988,0,0,0.04320987654320988,28.47530864197531,0)" xlink:href="#av"/><use transform="matrix(0.04320987654320988,0,0,0.04320987654320988,32.7962962962963,0)" xlink:href="#aw"/><use transform="matrix(0.04320987654320988,0,0,0.04320987654320988,41.43827160493827,0)" xlink:href="#ax"/><use transform="matrix(0.04320987654320988,0,0,0.04320987654320988,50.08024691358024,0)" xlink:href="#ay"/></g><path fill="#333" d="M30-248c118-7 216 8 213 122C240-48 200 0 122 0H30v-248zM63-27c89 8 146-16 146-99s-60-101-146-95v194" id="az"/><path fill="#333" d="M190 0L58-211 59 0H30v-248h39L202-35l-2-213h31V0h-41" id="aA"/><path fill="#333" d="M185-189c-5-48-123-54-124 2 14 75 158 14 163 119 3 78-121 87-175 55-17-10-28-26-33-46l33-7c5 56 141 63 141-1 0-78-155-14-162-118-5-82 145-84 179-34 5 7 8 16 11 25" id="aB"/><g id="k"><use transform="matrix(0.04320987654320988,0,0,0.04320987654320988,0,0)" xlink:href="#az"/><use transform="matrix(0.04320987654320988,0,0,0.04320987654320988,11.19135802469136,0)" xlink:href="#aA"/><use transform="matrix(0.04320987654320988,0,0,0.04320987654320988,22.38271604938272,0)" xlink:href="#aB"/></g><path d="M30-248c87 1 191-15 191 75 0 78-77 80-158 76V0H30v-248zm33 125c57 0 124 11 124-50 0-59-68-47-124-48v98" id="aC"/><path d="M84 4C-5 8 30-112 23-190h32v120c0 31 7 50 39 49 72-2 45-101 50-169h31l1 190h-30c-1-10 1-25-2-33-11 22-28 36-60 37" id="aD"/><path d="M24 0v-261h32V0H24" id="aE"/><path d="M24-231v-30h32v30H24zM24 0v-190h32V0H24" id="aF"/><path d="M96-169c-40 0-48 33-48 73s9 75 48 75c24 0 41-14 43-38l32 2c-6 37-31 61-74 61-59 0-76-41-82-99-10-93 101-131 147-64 4 7 5 14 7 22l-32 3c-4-21-16-35-41-35" id="aG"/><path d="M185-189c-5-48-123-54-124 2 14 75 158 14 163 119 3 78-121 87-175 55-17-10-28-26-33-46l33-7c5 56 141 63 141-1 0-78-155-14-162-118-5-82 145-84 179-34 5 7 8 16 11 25" id="aH"/><path d="M27 0v-27h64v-190l-56 39v-29l58-41h29v221h61V0H27" id="aI"/><g id="l"><use transform="matrix(0.04691358024691358,0,0,0.04691358024691358,0,0)" xlink:href="#aC"/><use transform="matrix(0.04691358024691358,0,0,0.04691358024691358,11.25925925925926,0)" xlink:href="#aD"/><use transform="matrix(0.04691358024691358,0,0,0.04691358024691358,20.641975308641975,0)" xlink:href="#Z"/><use transform="matrix(0.04691358024691358,0,0,0.04691358024691358,30.024691358024686,0)" xlink:href="#aE"/><use transform="matrix(0.04691358024691358,0,0,0.04691358024691358,33.73086419753086,0)" xlink:href="#aF"/><use transform="matrix(0.04691358024691358,0,0,0.04691358024691358,37.43703703703704,0)" xlink:href="#aG"/><use transform="matrix(0.04691358024691358,0,0,0.04691358024691358,45.88148148148148,0)" xlink:href="#aH"/><use transform="matrix(0.04691358024691358,0,0,0.04691358024691358,57.140740740740746,0)" xlink:href="#aD"/><use transform="matrix(0.04691358024691358,0,0,0.04691358024691358,66.52345679012346,0)" xlink:href="#Z"/><use transform="matrix(0.04691358024691358,0,0,0.04691358024691358,75.90617283950618,0)" xlink:href="#aI"/></g><path fill="#333" d="M182-182c0 78-84 86-111 141h115V0H12c-6-101 99-100 120-180 1-22-12-31-33-32-23 0-32 14-35 34l-49-3c5-45 32-70 84-70 51 0 83 22 83 69" id="aJ"/><path fill="#333" d="M165-50V0h-47v-50H5v-38l105-160h55v161h33v37h-33zm-47-37l2-116L46-87h72" id="aK"/><g id="m"><use transform="matrix(0.03703703703703704,0,0,0.03703703703703704,0,0)" xlink:href="#ae"/><use transform="matrix(0.03703703703703704,0,0,0.03703703703703704,7.407407407407408,0)" xlink:href="#af"/><use transform="matrix(0.03703703703703704,0,0,0.03703703703703704,14.814814814814817,0)" xlink:href="#ag"/><use transform="matrix(0.03703703703703704,0,0,0.03703703703703704,18.51851851851852,0)" xlink:href="#af"/><use transform="matrix(0.03703703703703704,0,0,0.03703703703703704,25.92592592592593,0)" xlink:href="#ag"/><use transform="matrix(0.03703703703703704,0,0,0.03703703703703704,29.629629629629633,0)" xlink:href="#aJ"/><use transform="matrix(0.03703703703703704,0,0,0.03703703703703704,37.03703703703704,0)" xlink:href="#ag"/><use transform="matrix(0.03703703703703704,0,0,0.03703703703703704,40.74074074074074,0)" xlink:href="#af"/><use transform="matrix(0.03703703703703704,0,0,0.03703703703703704,48.14814814814815,0)" xlink:href="#ah"/><use transform="matrix(0.03703703703703704,0,0,0.03703703703703704,51.85185185185186,0)" xlink:href="#aJ"/><use transform="matrix(0.03703703703703704,0,0,0.03703703703703704,59.25925925925927,0)" xlink:href="#aK"/></g><path d="M101-251c82-7 93 87 43 132L82-64C71-53 59-42 53-27h129V0H18c2-99 128-94 128-182 0-28-16-43-45-43s-46 15-49 41l-32-3c6-41 34-60 81-64" id="aL"/><g id="n"><use transform="matrix(0.04691358024691358,0,0,0.04691358024691358,0,0)" xlink:href="#aC"/><use transform="matrix(0.04691358024691358,0,0,0.04691358024691358,11.25925925925926,0)" xlink:href="#aD"/><use transform="matrix(0.04691358024691358,0,0,0.04691358024691358,20.641975308641975,0)" xlink:href="#Z"/><use transform="matrix(0.04691358024691358,0,0,0.04691358024691358,30.024691358024686,0)" xlink:href="#aE"/><use transform="matrix(0.04691358024691358,0,0,0.04691358024691358,33.73086419753086,0)" xlink:href="#aF"/><use transform="matrix(0.04691358024691358,0,0,0.04691358024691358,37.43703703703704,0)" xlink:href="#aG"/><use transform="matrix(0.04691358024691358,0,0,0.04691358024691358,45.88148148148148,0)" xlink:href="#aH"/><use transform="matrix(0.04691358024691358,0,0,0.04691358024691358,57.140740740740746,0)" xlink:href="#aD"/><use transform="matrix(0.04691358024691358,0,0,0.04691358024691358,66.52345679012346,0)" xlink:href="#Z"/><use transform="matrix(0.04691358024691358,0,0,0.04691358024691358,75.90617283950618,0)" xlink:href="#aL"/></g><path fill="#333" d="M128-127c34 4 56 21 59 58 7 91-148 94-172 28-4-9-6-17-7-26l51-5c1 24 16 35 40 36 23 0 39-12 38-36-1-31-31-36-65-34v-40c32 2 59-3 59-33 0-20-13-33-34-33s-33 13-35 32l-50-3c6-44 37-68 86-68 50 0 83 20 83 66 0 35-22 52-53 58" id="aM"/><g id="o"><use transform="matrix(0.03703703703703704,0,0,0.03703703703703704,0,0)" xlink:href="#ae"/><use transform="matrix(0.03703703703703704,0,0,0.03703703703703704,7.407407407407408,0)" xlink:href="#af"/><use transform="matrix(0.03703703703703704,0,0,0.03703703703703704,14.814814814814817,0)" xlink:href="#ag"/><use transform="matrix(0.03703703703703704,0,0,0.03703703703703704,18.51851851851852,0)" xlink:href="#af"/><use transform="matrix(0.03703703703703704,0,0,0.03703703703703704,25.92592592592593,0)" xlink:href="#ag"/><use transform="matrix(0.03703703703703704,0,0,0.03703703703703704,29.629629629629633,0)" xlink:href="#aM"/><use transform="matrix(0.03703703703703704,0,0,0.03703703703703704,37.03703703703704,0)" xlink:href="#ag"/><use transform="matrix(0.03703703703703704,0,0,0.03703703703703704,40.74074074074074,0)" xlink:href="#af"/><use transform="matrix(0.03703703703703704,0,0,0.03703703703703704,48.14814814814815,0)" xlink:href="#ah"/><use transform="matrix(0.03703703703703704,0,0,0.03703703703703704,51.85185185185186,0)" xlink:href="#aJ"/><use transform="matrix(0.03703703703703704,0,0,0.03703703703703704,59.25925925925927,0)" xlink:href="#aK"/></g><path fill="#a9afb8" d="M24 0v-248h52V0H24" id="aN"/><path fill="#a9afb8" d="M135-194c87-1 58 113 63 194h-50c-7-57 23-157-34-157-59 0-34 97-39 157H25l-1-190h47c2 12-1 28 3 38 12-26 28-41 61-42" id="aO"/><path fill="#a9afb8" d="M115-3C79 11 28 4 28-45v-112H4v-33h27l15-45h31v45h36v33H77v99c-1 23 16 31 38 25v30" id="aP"/><path fill="#a9afb8" d="M185-48c-13 30-37 53-82 52C43 2 14-33 14-96s30-98 90-98c62 0 83 45 84 108H66c0 31 8 55 39 56 18 0 30-7 34-22zm-45-69c5-46-57-63-70-21-2 6-4 13-4 21h74" id="aQ"/><path fill="#a9afb8" d="M135-150c-39-12-60 13-60 57V0H25l-1-190h47c2 13-1 29 3 40 6-28 27-53 61-41v41" id="aR"/><path fill="#a9afb8" d="M128 0H69L1-190h53L99-40l48-150h52" id="aS"/><path fill="#a9afb8" d="M25-224v-37h50v37H25zM25 0v-190h50V0H25" id="aT"/><path fill="#a9afb8" d="M231 0h-52l-39-155L100 0H48L-1-190h46L77-45c9-52 24-97 36-145h53l37 145 32-145h46" id="aU"/><path fill="#a9afb8" d="M195-6C206 82 75 100 31 46c-4-6-6-13-8-21l49-6c3 16 16 24 34 25 40 0 42-37 40-79-11 22-30 35-61 35-53 0-70-43-70-97 0-56 18-96 73-97 30 0 46 14 59 34l2-30h47zm-90-29c32 0 41-27 41-63 0-35-9-62-40-62-32 0-39 29-40 63 0 36 9 62 39 62" id="aV"/><g id="p"><use transform="matrix(0.0728395061728395,0,0,0.0728395061728395,0,0)" xlink:href="#aN"/><use transform="matrix(0.0728395061728395,0,0,0.0728395061728395,7.28395061728395,0)" xlink:href="#aO"/><use transform="matrix(0.0728395061728395,0,0,0.0728395061728395,23.235802469135802,0)" xlink:href="#aP"/><use transform="matrix(0.0728395061728395,0,0,0.0728395061728395,31.90370370370371,0)" xlink:href="#aQ"/><use transform="matrix(0.0728395061728395,0,0,0.0728395061728395,46.471604938271604,0)" xlink:href="#aR"/><use transform="matrix(0.0728395061728395,0,0,0.0728395061728395,56.669135802469135,0)" xlink:href="#aS"/><use transform="matrix(0.0728395061728395,0,0,0.0728395061728395,71.23703703703704,0)" xlink:href="#aT"/><use transform="matrix(0.0728395061728395,0,0,0.0728395061728395,78.52098765432099,0)" xlink:href="#aQ"/><use transform="matrix(0.0728395061728395,0,0,0.0728395061728395,93.08888888888889,0)" xlink:href="#aU"/><use transform="matrix(0.0728395061728395,0,0,0.0728395061728395,113.48395061728395,0)" xlink:href="#aT"/><use transform="matrix(0.0728395061728395,0,0,0.0728395061728395,120.7679012345679,0)" xlink:href="#aO"/><use transform="matrix(0.0728395061728395,0,0,0.0728395061728395,136.71975308641976,0)" xlink:href="#aV"/></g><path fill="#a9afb8" d="M135-194c53 0 70 44 70 98 0 56-19 98-73 100-31 1-45-17-59-34 3 33 2 69 2 105H25l-1-265h48c2 10 0 23 3 31 11-24 29-35 60-35zM114-30c33 0 39-31 40-66 0-38-9-64-40-64-56 0-55 130 0 130" id="aW"/><path fill="#a9afb8" d="M110-194c64 0 96 36 96 99 0 64-35 99-97 99-61 0-95-36-95-99 0-62 34-99 96-99zm-1 164c35 0 45-28 45-65 0-40-10-65-43-65-34 0-45 26-45 65 0 36 10 65 43 65" id="aX"/><path fill="#a9afb8" d="M190-63c-7 42-38 67-86 67-59 0-84-38-90-98-12-110 154-137 174-36l-49 2c-2-19-15-32-35-32-30 0-35 28-38 64-6 74 65 87 74 30" id="aY"/><path fill="#a9afb8" d="M137-138c1-29-70-34-71-4 15 46 118 7 119 86 1 83-164 76-172 9l43-7c4 19 20 25 44 25 33 8 57-30 24-41C81-84 22-81 20-136c-2-80 154-74 161-7" id="aZ"/><g id="q"><use transform="matrix(0.0728395061728395,0,0,0.0728395061728395,0,0)" xlink:href="#aW"/><use transform="matrix(0.0728395061728395,0,0,0.0728395061728395,15.95185185185185,0)" xlink:href="#aR"/><use transform="matrix(0.0728395061728395,0,0,0.0728395061728395,26.14938271604938,0)" xlink:href="#aX"/><use transform="matrix(0.0728395061728395,0,0,0.0728395061728395,42.10123456790124,0)" xlink:href="#aY"/><use transform="matrix(0.0728395061728395,0,0,0.0728395061728395,56.66913580246913,0)" xlink:href="#aQ"/><use transform="matrix(0.0728395061728395,0,0,0.0728395061728395,71.23703703703703,0)" xlink:href="#aZ"/><use transform="matrix(0.0728395061728395,0,0,0.0728395061728395,85.80493827160493,0)" xlink:href="#aZ"/></g><path fill="#a9afb8" d="M275 0h-61l-44-196L126 0H64L0-248h53L97-49l45-199h58l43 199 44-199h52" id="ba"/><path fill="#a9afb8" d="M135-194c52 0 70 43 70 98 0 56-19 99-73 100-30 1-46-15-58-35L72 0H24l1-261h50v104c11-23 29-37 60-37zM114-30c31 0 40-27 40-66 0-37-7-63-39-63s-41 28-41 65c0 36 8 64 40 64" id="bb"/><path fill="#a9afb8" d="M199 0l-22-63H83L61 0H9l90-248h61L250 0h-51zm-33-102l-36-108c-10 38-24 72-36 108h72" id="bc"/><g id="r"><use transform="matrix(0.0728395061728395,0,0,0.0728395061728395,0,0)" xlink:href="#ba"/><use transform="matrix(0.0728395061728395,0,0,0.0728395061728395,24.182716049382716,0)" xlink:href="#aQ"/><use transform="matrix(0.0728395061728395,0,0,0.0728395061728395,38.75061728395062,0)" xlink:href="#bb"/><use transform="matrix(0.0728395061728395,0,0,0.0728395061728395,54.70246913580247,0)" xlink:href="#bc"/><use transform="matrix(0.0728395061728395,0,0,0.0728395061728395,73.5679012345679,0)" xlink:href="#aW"/><use transform="matrix(0.0728395061728395,0,0,0.0728395061728395,89.51975308641975,0)" xlink:href="#aW"/></g><g id="s"><use transform="matrix(0.0728395061728395,0,0,0.0728395061728395,0,0)" xlink:href="#aX"/><use transform="matrix(0.0728395061728395,0,0,0.0728395061728395,15.95185185185185,0)" xlink:href="#aO"/></g><path fill="#a9afb8" d="M169-182c-1-43-94-46-97-3 18 66 151 10 154 114 3 95-165 93-204 36-6-8-10-19-12-30l50-8c3 46 112 56 116 5-17-69-150-10-154-114-4-87 153-88 188-35 5 8 8 18 10 28" id="bd"/><g id="t"><use transform="matrix(0.0728395061728395,0,0,0.0728395061728395,0,0)" xlink:href="#bc"/><use transform="matrix(0.0728395061728395,0,0,0.0728395061728395,17.40864197530864,0)" xlink:href="#ba"/><use transform="matrix(0.0728395061728395,0,0,0.0728395061728395,42.10123456790124,0)" xlink:href="#bd"/></g><path fill="#a9afb8" d="M240 0l2-218c-23 76-54 145-80 218h-23L58-218 59 0H30v-248h44l77 211c21-75 51-140 76-211h43V0h-30" id="be"/><path fill="#a9afb8" d="M141-36C126-15 110 5 73 4 37 3 15-17 15-53c-1-64 63-63 125-63 3-35-9-54-41-54-24 1-41 7-42 31l-33-3c5-37 33-52 76-52 45 0 72 20 72 64v82c-1 20 7 32 28 27v20c-31 9-61-2-59-35zM48-53c0 20 12 33 32 33 41-3 63-29 60-74-43 2-92-5-92 41" id="bf"/><path fill="#a9afb8" d="M114-163C36-179 61-72 57 0H25l-1-190h30c1 12-1 29 2 39 6-27 23-49 58-41v29" id="bg"/><path fill="#a9afb8" d="M96-169c-40 0-48 33-48 73s9 75 48 75c24 0 41-14 43-38l32 2c-6 37-31 61-74 61-59 0-76-41-82-99-10-93 101-131 147-64 4 7 5 14 7 22l-32 3c-4-21-16-35-41-35" id="bh"/><path fill="#a9afb8" d="M100-194c63 0 86 42 84 106H49c0 40 14 67 53 68 26 1 43-12 49-29l28 8c-11 28-37 45-77 45C44 4 14-33 15-96c1-61 26-98 85-98zm52 81c6-60-76-77-97-28-3 7-6 17-6 28h103" id="bi"/><path fill="#a9afb8" d="M24 0v-261h32V0H24" id="bj"/><path fill="#a9afb8" d="M100-194c62-1 85 37 85 99 1 63-27 99-86 99S16-35 15-95c0-66 28-99 85-99zM99-20c44 1 53-31 53-75 0-43-8-75-51-75s-53 32-53 75 10 74 51 75" id="bk"/><g id="u"><use transform="matrix(0.04248971193415638,0,0,0.04248971193415638,0,0)" xlink:href="#be"/><use transform="matrix(0.04248971193415638,0,0,0.04248971193415638,12.704423868312757,0)" xlink:href="#bf"/><use transform="matrix(0.04248971193415638,0,0,0.04248971193415638,21.20236625514403,0)" xlink:href="#bg"/><use transform="matrix(0.04248971193415638,0,0,0.04248971193415638,26.25864197530864,0)" xlink:href="#bh"/><use transform="matrix(0.04248971193415638,0,0,0.04248971193415638,33.90679012345679,0)" xlink:href="#bi"/><use transform="matrix(0.04248971193415638,0,0,0.04248971193415638,42.40473251028806,0)" xlink:href="#bj"/><use transform="matrix(0.04248971193415638,0,0,0.04248971193415638,45.761419753086415,0)" xlink:href="#bk"/></g><path fill="#a9afb8" d="M127-220V0H93v-220H8v-28h204v28h-85" id="bl"/><use transform="matrix(0.04248971193415638,0,0,0.04248971193415638,0,0)" xlink:href="#bl" id="v"/><path fill="#a9afb8" d="M30-248c87 1 191-15 191 75 0 78-77 80-158 76V0H30v-248zm33 125c57 0 124 11 124-50 0-59-68-47-124-48v98" id="bm"/><use transform="matrix(0.04248971193415638,0,0,0.04248971193415638,0,0)" xlink:href="#bm" id="w"/><path fill="#a9afb8" d="M212-179c-10-28-35-45-73-45-59 0-87 40-87 99 0 60 29 101 89 101 43 0 62-24 78-52l27 14C228-24 195 4 139 4 59 4 22-46 18-125c-6-104 99-153 187-111 19 9 31 26 39 46" id="bn"/><path fill="#a9afb8" d="M135-143c-3-34-86-38-87 0 15 53 115 12 119 90S17 21 10-45l28-5c4 36 97 45 98 0-10-56-113-15-118-90-4-57 82-63 122-42 12 7 21 19 24 35" id="bo"/><path fill="#a9afb8" d="M59-47c-2 24 18 29 38 22v24C64 9 27 4 27-40v-127H5v-23h24l9-43h21v43h35v23H59v120" id="bp"/><g id="x"><use transform="matrix(0.04248971193415638,0,0,0.04248971193415638,0,0)" xlink:href="#bn"/><use transform="matrix(0.04248971193415638,0,0,0.04248971193415638,11.004835390946502,0)" xlink:href="#bk"/><use transform="matrix(0.04248971193415638,0,0,0.04248971193415638,19.502777777777776,0)" xlink:href="#bo"/><use transform="matrix(0.04248971193415638,0,0,0.04248971193415638,27.150925925925925,0)" xlink:href="#bp"/><use transform="matrix(0.04248971193415638,0,0,0.04248971193415638,31.399897119341563,0)" xlink:href="#bf"/></g><path fill="#a9afb8" d="M32 76v-337h29V76H32" id="bq"/><use transform="matrix(0.04248971193415638,0,0,0.04248971193415638,0,0)" xlink:href="#bq" id="y"/><path fill="#a9afb8" d="M140-251c81 0 123 46 123 126C263-46 219 4 140 4 59 4 17-45 17-125s42-126 123-126zm0 227c63 0 89-41 89-101s-29-99-89-99c-61 0-89 39-89 99S79-25 140-24" id="br"/><path fill="#a9afb8" d="M115-194c53 0 69 39 70 98 0 66-23 100-70 100C84 3 66-7 56-30L54 0H23l1-261h32v101c10-23 28-34 59-34zm-8 174c40 0 45-34 45-75 0-40-5-75-45-74-42 0-51 32-51 76 0 43 10 73 51 73" id="bs"/><g id="z"><use transform="matrix(0.04248971193415638,0,0,0.04248971193415638,0,0)" xlink:href="#br"/><use transform="matrix(0.04248971193415638,0,0,0.04248971193415638,11.897119341563785,0)" xlink:href="#bh"/><use transform="matrix(0.04248971193415638,0,0,0.04248971193415638,19.545267489711932,0)" xlink:href="#bp"/><use transform="matrix(0.04248971193415638,0,0,0.04248971193415638,23.79423868312757,0)" xlink:href="#bk"/><use transform="matrix(0.04248971193415638,0,0,0.04248971193415638,32.29218106995884,0)" xlink:href="#bs"/><use transform="matrix(0.04248971193415638,0,0,0.04248971193415638,40.79012345679012,0)" xlink:href="#bi"/><use transform="matrix(0.04248971193415638,0,0,0.04248971193415638,49.288065843621396,0)" xlink:href="#bg"/></g><path fill="#a9afb8" d="M101-251c82-7 93 87 43 132L82-64C71-53 59-42 53-27h129V0H18c2-99 128-94 128-182 0-28-16-43-45-43s-46 15-49 41l-32-3c6-41 34-60 81-64" id="bt"/><path fill="#a9afb8" d="M134-131c28 9 52 24 51 62-1 50-34 73-85 73S17-19 16-69c0-36 21-54 49-61-75-25-45-126 34-121 46 3 78 18 79 63 0 33-17 51-44 57zm-34-11c31 1 46-15 46-44 0-28-17-43-47-42-29 0-46 13-45 42 1 28 16 44 46 44zm1 122c35 0 51-18 51-52 0-30-18-46-53-46-33 0-51 17-51 47 0 34 19 51 53 51" id="bu"/><path fill="#a9afb8" d="M68-38c1 34 0 65-14 84H32c9-13 17-26 17-46H33v-38h35" id="bv"/><g id="A"><use transform="matrix(0.04248971193415638,0,0,0.04248971193415638,0,0)" xlink:href="#bt"/><use transform="matrix(0.04248971193415638,0,0,0.04248971193415638,8.497942386831275,0)" xlink:href="#bu"/><use transform="matrix(0.04248971193415638,0,0,0.04248971193415638,16.99588477366255,0)" xlink:href="#bv"/></g><path fill="#a9afb8" d="M101-251c68 0 85 55 85 127S166 4 100 4C33 4 14-52 14-124c0-73 17-127 87-127zm-1 229c47 0 54-49 54-102s-4-102-53-102c-51 0-55 48-55 102 0 53 5 102 54 102" id="bw"/><g id="B"><use transform="matrix(0.04248971193415638,0,0,0.04248971193415638,0,0)" xlink:href="#bt"/><use transform="matrix(0.04248971193415638,0,0,0.04248971193415638,8.497942386831275,0)" xlink:href="#bw"/><use transform="matrix(0.04248971193415638,0,0,0.04248971193415638,16.99588477366255,0)" xlink:href="#bt"/><use transform="matrix(0.04248971193415638,0,0,0.04248971193415638,25.493827160493822,0)" xlink:href="#bw"/></g><path fill="#333" d="M33 0v-248h34V0H33" id="bx"/><path fill="#333" d="M117-194c89-4 53 116 60 194h-32v-121c0-31-8-49-39-48C34-167 62-67 57 0H25l-1-190h30c1 10-1 24 2 32 11-22 29-35 61-36" id="by"/><path fill="#333" d="M114-163C36-179 61-72 57 0H25l-1-190h30c1 12-1 29 2 39 6-27 23-49 58-41v29" id="bz"/><g id="C"><use transform="matrix(0.05,0,0,0.05,0,0)" xlink:href="#bx"/><use transform="matrix(0.05,0,0,0.05,5,0)" xlink:href="#by"/><use transform="matrix(0.05,0,0,0.05,15,0)" xlink:href="#av"/><use transform="matrix(0.05,0,0,0.05,20,0)" xlink:href="#aw"/><use transform="matrix(0.05,0,0,0.05,30,0)" xlink:href="#bz"/><use transform="matrix(0.05,0,0,0.05,35.95,0)" xlink:href="#by"/><use transform="matrix(0.05,0,0,0.05,45.95,0)" xlink:href="#aw"/><use transform="matrix(0.05,0,0,0.05,55.95,0)" xlink:href="#av"/></g><path fill="#333" d="M177-190C167-65 218 103 67 71c-23-6-38-20-44-43l32-5c15 47 100 32 89-28v-30C133-14 115 1 83 1 29 1 15-40 15-95c0-56 16-97 71-98 29-1 48 16 59 35 1-10 0-23 2-32h30zM94-22c36 0 50-32 50-73 0-42-14-75-50-75-39 0-46 34-46 75s6 73 46 73" id="bA"/><path fill="#333" d="M141-36C126-15 110 5 73 4 37 3 15-17 15-53c-1-64 63-63 125-63 3-35-9-54-41-54-24 1-41 7-42 31l-33-3c5-37 33-52 76-52 45 0 72 20 72 64v82c-1 20 7 32 28 27v20c-31 9-61-2-59-35zM48-53c0 20 12 33 32 33 41-3 63-29 60-74-43 2-92-5-92 41" id="bB"/><path fill="#333" d="M206 0h-36l-40-164L89 0H53L-1-190h32L70-26l43-164h34l41 164 42-164h31" id="bC"/><path fill="#333" d="M179-190L93 31C79 59 56 82 12 73V49c39 6 53-20 64-50L1-190h34L92-34l54-156h33" id="bD"/><g id="D"><use transform="matrix(0.05,0,0,0.05,0,0)" xlink:href="#bA"/><use transform="matrix(0.05,0,0,0.05,10,0)" xlink:href="#bB"/><use transform="matrix(0.05,0,0,0.05,20,0)" xlink:href="#av"/><use transform="matrix(0.05,0,0,0.05,25,0)" xlink:href="#aw"/><use transform="matrix(0.05,0,0,0.05,35,0)" xlink:href="#bC"/><use transform="matrix(0.05,0,0,0.05,47.95,0)" xlink:href="#bB"/><use transform="matrix(0.05,0,0,0.05,57.95,0)" xlink:href="#bD"/></g><path fill="#333" d="M205 0l-28-72H64L36 0H1l101-248h38L239 0h-34zm-38-99l-47-123c-12 45-31 82-46 123h93" id="bE"/><path fill="#333" d="M115-194c55 1 70 41 70 98S169 2 115 4C84 4 66-9 55-30l1 105H24l-1-265h31l2 30c10-21 28-34 59-34zm-8 174c40 0 45-34 45-75s-6-73-45-74c-42 0-51 32-51 76 0 43 10 73 51 73" id="bF"/><path fill="#333" d="M24 0v-261h32V0H24" id="bG"/><path fill="#333" d="M24-231v-30h32v30H24zM24 0v-190h32V0H24" id="bH"/><path fill="#333" d="M96-169c-40 0-48 33-48 73s9 75 48 75c24 0 41-14 43-38l32 2c-6 37-31 61-74 61-59 0-76-41-82-99-10-93 101-131 147-64 4 7 5 14 7 22l-32 3c-4-21-16-35-41-35" id="bI"/><g id="E"><use transform="matrix(0.05,0,0,0.05,0,0)" xlink:href="#bE"/><use transform="matrix(0.05,0,0,0.05,12,0)" xlink:href="#bF"/><use transform="matrix(0.05,0,0,0.05,22,0)" xlink:href="#bF"/><use transform="matrix(0.05,0,0,0.05,32,0)" xlink:href="#bG"/><use transform="matrix(0.05,0,0,0.05,35.95,0)" xlink:href="#bH"/><use transform="matrix(0.05,0,0,0.05,39.900000000000006,0)" xlink:href="#bI"/><use transform="matrix(0.05,0,0,0.05,48.900000000000006,0)" xlink:href="#bB"/><use transform="matrix(0.05,0,0,0.05,58.900000000000006,0)" xlink:href="#av"/><use transform="matrix(0.05,0,0,0.05,63.900000000000006,0)" xlink:href="#bH"/><use transform="matrix(0.05,0,0,0.05,67.85000000000001,0)" xlink:href="#at"/><use transform="matrix(0.05,0,0,0.05,77.85000000000001,0)" xlink:href="#by"/></g><path fill="#333" d="M30 0v-248h33v221h125V0H30" id="bJ"/><path fill="#333" d="M85-194c31 0 48 13 60 33l-1-100h32l1 261h-30c-2-10 0-23-3-31C134-8 116 4 85 4 32 4 16-35 15-94c0-66 23-100 70-100zm9 24c-40 0-46 34-46 75 0 40 6 74 45 74 42 0 51-32 51-76 0-42-9-74-50-73" id="bK"/><g id="F"><use transform="matrix(0.05,0,0,0.05,0,0)" xlink:href="#bJ"/><use transform="matrix(0.05,0,0,0.05,10,0)" xlink:href="#at"/><use transform="matrix(0.05,0,0,0.05,20,0)" xlink:href="#bB"/><use transform="matrix(0.05,0,0,0.05,30,0)" xlink:href="#bK"/></g><path fill="#333" d="M160-131c35 5 61 23 61 61C221 17 115-2 30 0v-248c76 3 177-17 177 60 0 33-19 50-47 57zm-97-11c50-1 110 9 110-42 0-47-63-36-110-37v79zm0 115c55-2 124 14 124-45 0-56-70-42-124-44v89" id="bL"/><g id="G"><use transform="matrix(0.05,0,0,0.05,0,0)" xlink:href="#bL"/><use transform="matrix(0.05,0,0,0.05,12,0)" xlink:href="#bB"/><use transform="matrix(0.05,0,0,0.05,22,0)" xlink:href="#bG"/><use transform="matrix(0.05,0,0,0.05,25.950000000000003,0)" xlink:href="#bB"/><use transform="matrix(0.05,0,0,0.05,35.95,0)" xlink:href="#by"/><use transform="matrix(0.05,0,0,0.05,45.95,0)" xlink:href="#bI"/><use transform="matrix(0.05,0,0,0.05,54.95,0)" xlink:href="#aw"/><use transform="matrix(0.05,0,0,0.05,64.95,0)" xlink:href="#bz"/></g><path fill="#dd3522" d="M185-189c-5-48-123-54-124 2 14 75 158 14 163 119 3 78-121 87-175 55-17-10-28-26-33-46l33-7c5 56 141 63 141-1 0-78-155-14-162-118-5-82 145-84 179-34 5 7 8 16 11 25" id="bM"/><path fill="#dd3522" d="M100-194c63 0 86 42 84 106H49c0 40 14 67 53 68 26 1 43-12 49-29l28 8c-11 28-37 45-77 45C44 4 14-33 15-96c1-61 26-98 85-98zm52 81c6-60-76-77-97-28-3 7-6 17-6 28h103" id="bN"/><path fill="#dd3522" d="M96-169c-40 0-48 33-48 73s9 75 48 75c24 0 41-14 43-38l32 2c-6 37-31 61-74 61-59 0-76-41-82-99-10-93 101-131 147-64 4 7 5 14 7 22l-32 3c-4-21-16-35-41-35" id="bO"/><path fill="#dd3522" d="M84 4C-5 8 30-112 23-190h32v120c0 31 7 50 39 49 72-2 45-101 50-169h31l1 190h-30c-1-10 1-25-2-33-11 22-28 36-60 37" id="bP"/><path fill="#dd3522" d="M114-163C36-179 61-72 57 0H25l-1-190h30c1 12-1 29 2 39 6-27 23-49 58-41v29" id="bQ"/><path fill="#dd3522" d="M24-231v-30h32v30H24zM24 0v-190h32V0H24" id="bR"/><path fill="#dd3522" d="M59-47c-2 24 18 29 38 22v24C64 9 27 4 27-40v-127H5v-23h24l9-43h21v43h35v23H59v120" id="bS"/><path fill="#dd3522" d="M179-190L93 31C79 59 56 82 12 73V49c39 6 53-20 64-50L1-190h34L92-34l54-156h33" id="bT"/><g id="H"><use transform="matrix(0.05,0,0,0.05,0,0)" xlink:href="#bM"/><use transform="matrix(0.05,0,0,0.05,12,0)" xlink:href="#bN"/><use transform="matrix(0.05,0,0,0.05,22,0)" xlink:href="#bO"/><use transform="matrix(0.05,0,0,0.05,31,0)" xlink:href="#bP"/><use transform="matrix(0.05,0,0,0.05,41,0)" xlink:href="#bQ"/><use transform="matrix(0.05,0,0,0.05,46.95,0)" xlink:href="#bR"/><use transform="matrix(0.05,0,0,0.05,50.900000000000006,0)" xlink:href="#bS"/><use transform="matrix(0.05,0,0,0.05,55.900000000000006,0)" xlink:href="#bT"/></g><path fill="#dd3522" d="M143 4C61 4 22-44 18-125c-5-107 100-154 193-111 17 8 29 25 37 43l-32 9c-13-25-37-40-76-40-61 0-88 39-88 99 0 61 29 100 91 101 35 0 62-11 79-27v-45h-74v-28h105v86C228-13 192 4 143 4" id="bU"/><path fill="#dd3522" d="M100-194c62-1 85 37 85 99 1 63-27 99-86 99S16-35 15-95c0-66 28-99 85-99zM99-20c44 1 53-31 53-75 0-43-8-75-51-75s-53 32-53 75 10 74 51 75" id="bV"/><path fill="#dd3522" d="M115-194c55 1 70 41 70 98S169 2 115 4C84 4 66-9 55-30l1 105H24l-1-265h31l2 30c10-21 28-34 59-34zm-8 174c40 0 45-34 45-75s-6-73-45-74c-42 0-51 32-51 76 0 43 10 73 51 73" id="bW"/><g id="I"><use transform="matrix(0.05,0,0,0.05,0,0)" xlink:href="#bU"/><use transform="matrix(0.05,0,0,0.05,14,0)" xlink:href="#bQ"/><use transform="matrix(0.05,0,0,0.05,19.95,0)" xlink:href="#bV"/><use transform="matrix(0.05,0,0,0.05,29.950000000000003,0)" xlink:href="#bP"/><use transform="matrix(0.05,0,0,0.05,39.95,0)" xlink:href="#bW"/></g><path fill="#147eba" d="M30-248c87 1 191-15 191 75 0 78-77 80-158 76V0H30v-248zm33 125c57 0 124 11 124-50 0-59-68-47-124-48v98" id="bX"/><path fill="#147eba" d="M114-163C36-179 61-72 57 0H25l-1-190h30c1 12-1 29 2 39 6-27 23-49 58-41v29" id="bY"/><path fill="#147eba" d="M24-231v-30h32v30H24zM24 0v-190h32V0H24" id="bZ"/><path fill="#147eba" d="M108 0H70L1-190h34L89-25l56-165h34" id="ca"/><path fill="#147eba" d="M141-36C126-15 110 5 73 4 37 3 15-17 15-53c-1-64 63-63 125-63 3-35-9-54-41-54-24 1-41 7-42 31l-33-3c5-37 33-52 76-52 45 0 72 20 72 64v82c-1 20 7 32 28 27v20c-31 9-61-2-59-35zM48-53c0 20 12 33 32 33 41-3 63-29 60-74-43 2-92-5-92 41" id="cb"/><path fill="#147eba" d="M59-47c-2 24 18 29 38 22v24C64 9 27 4 27-40v-127H5v-23h24l9-43h21v43h35v23H59v120" id="cc"/><path fill="#147eba" d="M100-194c63 0 86 42 84 106H49c0 40 14 67 53 68 26 1 43-12 49-29l28 8c-11 28-37 45-77 45C44 4 14-33 15-96c1-61 26-98 85-98zm52 81c6-60-76-77-97-28-3 7-6 17-6 28h103" id="cd"/><path fill="#147eba" d="M185-189c-5-48-123-54-124 2 14 75 158 14 163 119 3 78-121 87-175 55-17-10-28-26-33-46l33-7c5 56 141 63 141-1 0-78-155-14-162-118-5-82 145-84 179-34 5 7 8 16 11 25" id="ce"/><path fill="#147eba" d="M84 4C-5 8 30-112 23-190h32v120c0 31 7 50 39 49 72-2 45-101 50-169h31l1 190h-30c-1-10 1-25-2-33-11 22-28 36-60 37" id="cf"/><path fill="#147eba" d="M115-194c53 0 69 39 70 98 0 66-23 100-70 100C84 3 66-7 56-30L54 0H23l1-261h32v101c10-23 28-34 59-34zm-8 174c40 0 45-34 45-75 0-40-5-75-45-74-42 0-51 32-51 76 0 43 10 73 51 73" id="cg"/><path fill="#147eba" d="M27 0v-27h64v-190l-56 39v-29l58-41h29v221h61V0H27" id="ch"/><g id="J"><use transform="matrix(0.05,0,0,0.05,0,0)" xlink:href="#bX"/><use transform="matrix(0.05,0,0,0.05,12,0)" xlink:href="#bY"/><use transform="matrix(0.05,0,0,0.05,17.95,0)" xlink:href="#bZ"/><use transform="matrix(0.05,0,0,0.05,21.9,0)" xlink:href="#ca"/><use transform="matrix(0.05,0,0,0.05,30.899999999999995,0)" xlink:href="#cb"/><use transform="matrix(0.05,0,0,0.05,40.9,0)" xlink:href="#cc"/><use transform="matrix(0.05,0,0,0.05,45.9,0)" xlink:href="#cd"/><use transform="matrix(0.05,0,0,0.05,55.900000000000006,0)" xlink:href="#ce"/><use transform="matrix(0.05,0,0,0.05,67.9,0)" xlink:href="#cf"/><use transform="matrix(0.05,0,0,0.05,77.9,0)" xlink:href="#cg"/><use transform="matrix(0.05,0,0,0.05,87.9,0)" xlink:href="#ch"/></g><path fill="#147eba" d="M101-251c68 0 85 55 85 127S166 4 100 4C33 4 14-52 14-124c0-73 17-127 87-127zm-1 229c47 0 54-49 54-102s-4-102-53-102c-51 0-55 48-55 102 0 53 5 102 54 102" id="ci"/><path fill="#147eba" d="M33 0v-38h34V0H33" id="cj"/><path fill="#147eba" d="M0 4l72-265h28L28 4H0" id="ck"/><path fill="#147eba" d="M101-251c82-7 93 87 43 132L82-64C71-53 59-42 53-27h129V0H18c2-99 128-94 128-182 0-28-16-43-45-43s-46 15-49 41l-32-3c6-41 34-60 81-64" id="cl"/><path fill="#147eba" d="M155-56V0h-30v-56H8v-25l114-167h33v167h35v25h-35zm-30-156c-27 46-58 90-88 131h88v-131" id="cm"/><g id="K"><use transform="matrix(0.05,0,0,0.05,0,0)" xlink:href="#ch"/><use transform="matrix(0.05,0,0,0.05,10,0)" xlink:href="#ci"/><use transform="matrix(0.05,0,0,0.05,20,0)" xlink:href="#cj"/><use transform="matrix(0.05,0,0,0.05,25,0)" xlink:href="#ci"/><use transform="matrix(0.05,0,0,0.05,35,0)" xlink:href="#cj"/><use transform="matrix(0.05,0,0,0.05,40,0)" xlink:href="#ci"/><use transform="matrix(0.05,0,0,0.05,50,0)" xlink:href="#cj"/><use transform="matrix(0.05,0,0,0.05,55,0)" xlink:href="#ci"/><use transform="matrix(0.05,0,0,0.05,65,0)" xlink:href="#ck"/><use transform="matrix(0.05,0,0,0.05,70,0)" xlink:href="#cl"/><use transform="matrix(0.05,0,0,0.05,80,0)" xlink:href="#cm"/></g><g id="L"><use transform="matrix(0.05,0,0,0.05,0,0)" xlink:href="#bX"/><use transform="matrix(0.05,0,0,0.05,12,0)" xlink:href="#bY"/><use transform="matrix(0.05,0,0,0.05,17.95,0)" xlink:href="#bZ"/><use transform="matrix(0.05,0,0,0.05,21.9,0)" xlink:href="#ca"/><use transform="matrix(0.05,0,0,0.05,30.899999999999995,0)" xlink:href="#cb"/><use transform="matrix(0.05,0,0,0.05,40.9,0)" xlink:href="#cc"/><use transform="matrix(0.05,0,0,0.05,45.9,0)" xlink:href="#cd"/><use transform="matrix(0.05,0,0,0.05,55.900000000000006,0)" xlink:href="#ce"/><use transform="matrix(0.05,0,0,0.05,67.9,0)" xlink:href="#cf"/><use transform="matrix(0.05,0,0,0.05,77.9,0)" xlink:href="#cg"/><use transform="matrix(0.05,0,0,0.05,87.9,0)" xlink:href="#cl"/></g><g id="M"><use transform="matrix(0.05,0,0,0.05,0,0)" xlink:href="#ch"/><use transform="matrix(0.05,0,0,0.05,10,0)" xlink:href="#ci"/><use transform="matrix(0.05,0,0,0.05,20,0)" xlink:href="#cj"/><use transform="matrix(0.05,0,0,0.05,25,0)" xlink:href="#ci"/><use transform="matrix(0.05,0,0,0.05,35,0)" xlink:href="#cj"/><use transform="matrix(0.05,0,0,0.05,40,0)" xlink:href="#ch"/><use transform="matrix(0.05,0,0,0.05,50,0)" xlink:href="#cj"/><use transform="matrix(0.05,0,0,0.05,55,0)" xlink:href="#ci"/><use transform="matrix(0.05,0,0,0.05,65,0)" xlink:href="#ck"/><use transform="matrix(0.05,0,0,0.05,70,0)" xlink:href="#cl"/><use transform="matrix(0.05,0,0,0.05,80,0)" xlink:href="#cm"/></g><path fill="#333" d="M210-169c-67 3-38 105-44 169h-31v-121c0-29-5-50-35-48C34-165 62-65 56 0H25l-1-190h30c1 10-1 24 2 32 10-44 99-50 107 0 11-21 27-35 58-36 85-2 47 119 55 194h-31v-121c0-29-5-49-35-48" id="cn"/><path fill="#333" d="M9 0v-24l116-142H16v-24h144v24L44-24h123V0H9" id="co"/><g id="N"><use transform="matrix(0.05,0,0,0.05,0,0)" xlink:href="#bE"/><use transform="matrix(0.05,0,0,0.05,12,0)" xlink:href="#cn"/><use transform="matrix(0.05,0,0,0.05,26.950000000000003,0)" xlink:href="#bB"/><use transform="matrix(0.05,0,0,0.05,36.95,0)" xlink:href="#co"/><use transform="matrix(0.05,0,0,0.05,45.95,0)" xlink:href="#at"/><use transform="matrix(0.05,0,0,0.05,55.95,0)" xlink:href="#by"/></g><path fill="#333" d="M30 0v-248h187v28H63v79h144v27H63v87h162V0H30" id="cp"/><path fill="#333" d="M212-179c-10-28-35-45-73-45-59 0-87 40-87 99 0 60 29 101 89 101 43 0 62-24 78-52l27 14C228-24 195 4 139 4 59 4 22-46 18-125c-6-104 99-153 187-111 19 9 31 26 39 46" id="cq"/><path fill="#333" d="M101-251c82-7 93 87 43 132L82-64C71-53 59-42 53-27h129V0H18c2-99 128-94 128-182 0-28-16-43-45-43s-46 15-49 41l-32-3c6-41 34-60 81-64" id="cr"/><g id="O"><use transform="matrix(0.05,0,0,0.05,0,0)" xlink:href="#cp"/><use transform="matrix(0.05,0,0,0.05,12,0)" xlink:href="#cq"/><use transform="matrix(0.05,0,0,0.05,24.950000000000003,0)" xlink:href="#cr"/></g></defs></g></svg>